<?xml version="1.0" encoding="UTF-8" standalone="no"?>
<!-- Generator: Adobe Illustrator 15.0.2, SVG Export Plug-In . SVG Version: 6.00 Build 0)  -->

<svg
   xmlns:dc="http://purl.org/dc/elements/1.1/"
   xmlns:cc="http://creativecommons.org/ns#"
   xmlns:rdf="http://www.w3.org/1999/02/22-rdf-syntax-ns#"
   xmlns:svg="http://www.w3.org/2000/svg"
   xmlns="http://www.w3.org/2000/svg"
   xmlns:xlink="http://www.w3.org/1999/xlink"
   xmlns:sodipodi="http://sodipodi.sourceforge.net/DTD/sodipodi-0.dtd"
   xmlns:inkscape="http://www.inkscape.org/namespaces/inkscape"
   version="1.1"
   id="Layer_1"
   x="0px"
   y="0px"
   width="877.02722"
   height="361.00742"
   viewBox="0 0 877.0272 361.00741"
   enable-background="new 0 0 161.173 191.341"
   xml:space="preserve"
   inkscape:version="0.91 r13725"
   sodipodi:docname="LaurelBranch7.svg"><metadata
     id="metadata1921"><rdf:RDF><cc:Work
         rdf:about=""><dc:format>image/svg+xml</dc:format><dc:type
           rdf:resource="http://purl.org/dc/dcmitype/StillImage" /><dc:title></dc:title></cc:Work></rdf:RDF></metadata><defs
     id="defs1919"><defs
       id="defs839"><rect
         height="174.58701"
         width="145.356"
         y="8.0450001"
         x="8.2799997"
         id="SVGID_69_" /></defs><clipPath
       id="SVGID_70_"><use
         id="use843"
         overflow="visible"
         xlink:href="#SVGID_69_"
         style="overflow:visible"
         x="0"
         y="0"
         width="100%"
         height="100%" /></clipPath><defs
       id="defs1457"><rect
         height="174.58701"
         width="145.356"
         y="8.0450001"
         x="8.2799997"
         id="SVGID_137_" /></defs><clipPath
       id="SVGID_138_"><use
         id="use1461"
         overflow="visible"
         xlink:href="#SVGID_137_"
         style="overflow:visible"
         x="0"
         y="0"
         width="100%"
         height="100%" /></clipPath><defs
       id="defs1811"><rect
         height="174.58701"
         width="145.356"
         y="8.0450001"
         x="8.2799997"
         id="SVGID_185_" /></defs><clipPath
       id="SVGID_186_"><use
         id="use1815"
         overflow="visible"
         xlink:href="#SVGID_185_"
         style="overflow:visible"
         x="0"
         y="0"
         width="100%"
         height="100%" /></clipPath><defs
       id="defs319"><rect
         height="174.58701"
         width="145.356"
         y="8.0450001"
         x="8.2799997"
         id="SVGID_25_" /></defs><clipPath
       id="SVGID_26_"><use
         id="use323"
         overflow="visible"
         xlink:href="#SVGID_25_"
         style="overflow:visible"
         x="0"
         y="0"
         width="100%"
         height="100%" /></clipPath><defs
       id="defs599"><rect
         height="174.58701"
         width="145.356"
         y="8.0450001"
         x="8.2799997"
         id="SVGID_49_" /></defs><clipPath
       id="SVGID_50_"><use
         id="use603"
         overflow="visible"
         xlink:href="#SVGID_49_"
         style="overflow:visible"
         x="0"
         y="0"
         width="100%"
         height="100%" /></clipPath><defs
       id="defs495"><rect
         height="174.58701"
         width="145.356"
         y="8.0450001"
         x="8.2799997"
         id="SVGID_41_" /></defs><clipPath
       id="SVGID_42_"><use
         id="use499"
         overflow="visible"
         xlink:href="#SVGID_41_"
         style="overflow:visible"
         x="0"
         y="0"
         width="100%"
         height="100%" /></clipPath><defs
       id="defs199"><rect
         height="174.58701"
         width="145.356"
         y="8.0450001"
         x="8.2799997"
         id="SVGID_17_" /></defs><clipPath
       id="SVGID_18_"><use
         id="use203"
         overflow="visible"
         xlink:href="#SVGID_17_"
         style="overflow:visible"
         x="0"
         y="0"
         width="100%"
         height="100%" /></clipPath><defs
       id="defs405"><rect
         height="174.58701"
         width="145.356"
         y="8.0450001"
         x="8.2799997"
         id="SVGID_29_" /></defs><clipPath
       id="SVGID_30_"><use
         id="use409"
         overflow="visible"
         xlink:href="#SVGID_29_"
         style="overflow:visible"
         x="0"
         y="0"
         width="100%"
         height="100%" /></clipPath><defs
       id="defs807"><rect
         height="174.58701"
         width="145.356"
         y="8.0450001"
         x="8.2799997"
         id="SVGID_65_" /></defs><clipPath
       id="SVGID_66_"><use
         id="use811"
         overflow="visible"
         xlink:href="#SVGID_65_"
         style="overflow:visible"
         x="0"
         y="0"
         width="100%"
         height="100%" /></clipPath><defs
       id="defs5"><rect
         height="174.58701"
         width="145.356"
         y="8.0450001"
         x="8.2799997"
         id="SVGID_1_" /></defs><clipPath
       id="SVGID_2_"><use
         id="use9"
         overflow="visible"
         xlink:href="#SVGID_1_"
         style="overflow:visible"
         x="0"
         y="0"
         width="100%"
         height="100%" /></clipPath><defs
       id="defs707"><rect
         height="174.58701"
         width="145.356"
         y="8.0450001"
         x="8.2799997"
         id="SVGID_53_" /></defs><clipPath
       id="SVGID_54_"><use
         id="use711"
         overflow="visible"
         xlink:href="#SVGID_53_"
         style="overflow:visible"
         x="0"
         y="0"
         width="100%"
         height="100%" /></clipPath><defs
       id="defs435"><rect
         height="174.58701"
         width="145.356"
         y="8.0450001"
         x="8.2799997"
         id="SVGID_33_" /></defs><clipPath
       id="SVGID_34_"><use
         id="use439"
         overflow="visible"
         xlink:href="#SVGID_33_"
         style="overflow:visible"
         x="0"
         y="0"
         width="100%"
         height="100%" /></clipPath><defs
       id="defs1679"><rect
         height="174.58701"
         width="145.356"
         y="8.0450001"
         x="8.2799997"
         id="SVGID_169_" /></defs><clipPath
       id="SVGID_170_"><use
         id="use1683"
         overflow="visible"
         xlink:href="#SVGID_169_"
         style="overflow:visible"
         x="0"
         y="0"
         width="100%"
         height="100%" /></clipPath><defs
       id="defs1627"><rect
         height="174.58701"
         width="145.356"
         y="8.0450001"
         x="8.2799997"
         id="SVGID_161_" /></defs><clipPath
       id="SVGID_162_"><use
         id="use1631"
         overflow="visible"
         xlink:href="#SVGID_161_"
         style="overflow:visible"
         x="0"
         y="0"
         width="100%"
         height="100%" /></clipPath></defs><sodipodi:namedview
     pagecolor="#ffffff"
     bordercolor="#666666"
     borderopacity="1"
     objecttolerance="10"
     gridtolerance="10"
     guidetolerance="10"
     inkscape:pageopacity="0"
     inkscape:pageshadow="2"
     inkscape:window-width="1600"
     inkscape:window-height="837"
     id="namedview1917"
     showgrid="false"
     inkscape:zoom="1.2587979"
     inkscape:cx="438.51365"
     inkscape:cy="180.50366"
     inkscape:window-x="-8"
     inkscape:window-y="-8"
     inkscape:window-maximized="1"
     inkscape:current-layer="Layer_1"
     fit-margin-top="0"
     fit-margin-left="0"
     fit-margin-right="0"
     fit-margin-bottom="0" /><g
     id="g9532"><path
       transform="matrix(-2.9504505,-6.3272619,-6.3272619,2.9504505,1419.0143,42.08228)"
       clip-path="url(#SVGID_2_)"
       d="m 33.939,138.54 c 0,0 -1.582,-0.639 -2.282,-0.989 -1.216,-0.608 -3.957,-3.981 -7.019,-5.758 -4.7,-2.727 -9.249,-2.024 -13.405,-3.809 0.931,4.352 3.863,8.283 8.718,10.365 3.988,1.711 10.423,0.24 11.123,0.298 0.7,0.059 2.923,0.917 2.923,0.917"
       id="path11"
       inkscape:connector-curvature="0" /><path
       transform="matrix(-2.9504505,-6.3272619,-6.3272619,2.9504505,1419.0143,42.08228)"
       clip-path="url(#SVGID_2_)"
       stroke-miterlimit="3.864"
       d="m 33.939,138.54 c 0,0 -1.582,-0.639 -2.282,-0.989 -1.216,-0.608 -3.957,-3.981 -7.019,-5.758 -4.7,-2.727 -9.249,-2.024 -13.405,-3.809 0.931,4.352 3.863,8.283 8.718,10.365 3.988,1.711 10.423,0.24 11.123,0.298 0.7,0.059 2.923,0.917 2.923,0.917"
       id="path13"
       inkscape:connector-curvature="0"
       style="fill:none;stroke:#000000;stroke-width:0.44800001;stroke-linecap:round;stroke-linejoin:round;stroke-miterlimit:3.86400008" /><path
       transform="matrix(-2.9504505,-6.3272619,-6.3272619,2.9504505,1419.0143,42.08228)"
       clip-path="url(#SVGID_18_)"
       d="m 16.977,143.971 0.042,-0.127 c 2.571,-0.35 4.979,-0.933 7.48,-1.567 5.541,-1.404 8.137,-0.264 12.627,2.809 0.281,0.193 0.614,0.461 0.936,0.582 0.728,0.275 1.195,0.083 1.898,0.083 l 0.064,0.013 1.053,0.823 c 0.08,0.063 0.032,0.118 -0.044,0.134 -0.917,0.189 -2.169,0.186 -3.129,0.099 -1.448,-0.132 -4.428,3.3 -8.67,3.3 -5.375,0 -8.907,-2.379 -12.257,-6.149"
       id="path225"
       inkscape:connector-curvature="0" /><path
       transform="matrix(-2.9504505,-6.3272619,-6.3272619,2.9504505,1419.0143,42.08228)"
       clip-path="url(#SVGID_18_)"
       stroke-miterlimit="3.864"
       d="m 16.977,143.971 0.042,-0.127 c 2.571,-0.35 4.979,-0.933 7.48,-1.567 5.541,-1.404 8.137,-0.264 12.627,2.809 0.281,0.193 0.614,0.461 0.936,0.582 0.728,0.275 1.195,0.083 1.898,0.083 l 0.064,0.013 1.053,0.823 c 0.08,0.063 0.032,0.118 -0.044,0.134 -0.917,0.189 -2.169,0.186 -3.129,0.099 -1.448,-0.132 -4.428,3.3 -8.67,3.3 -5.375,0 -8.907,-2.379 -12.257,-6.149 z"
       id="path227"
       inkscape:connector-curvature="0"
       style="fill:none;stroke:#000000;stroke-width:0.44800001;stroke-linecap:round;stroke-linejoin:round;stroke-miterlimit:3.86400008" /><path
       transform="matrix(-2.9504505,-6.3272619,-6.3272619,2.9504505,1419.0143,42.08228)"
       clip-path="url(#SVGID_18_)"
       d="m 40.614,146.51 c -0.839,0.03 -1.733,0.03 -2.561,0.169 -2.472,0.416 -4.919,3.109 -8.678,3.217 -5.002,0.144 -8.16,-2.212 -11.579,-5.574 4.974,-0.748 8.819,-3.62 13.951,-2.005 2.631,0.828 5.724,4.142 8.194,3.667 l 0.673,0.526 z"
       id="path229"
       inkscape:connector-curvature="0"
       style="fill:#899066" /><path
       transform="matrix(-2.9504505,-6.3272619,-6.3272619,2.9504505,1419.0143,42.08228)"
       clip-path="url(#SVGID_18_)"
       stroke-miterlimit="3.864"
       d="m 40.614,146.51 c -0.839,0.03 -1.733,0.03 -2.561,0.169 -2.472,0.416 -4.919,3.109 -8.678,3.217 -5.002,0.144 -8.16,-2.212 -11.579,-5.574 4.974,-0.748 8.819,-3.62 13.951,-2.005 2.631,0.828 5.724,4.142 8.194,3.667 l 0.673,0.526 z"
       id="path231"
       inkscape:connector-curvature="0"
       style="fill:none;stroke:#000000;stroke-width:0.44800001;stroke-linecap:round;stroke-linejoin:round;stroke-miterlimit:3.86400008" /><path
       transform="matrix(-2.9504505,-6.3272619,-6.3272619,2.9504505,1419.0143,42.08228)"
       clip-path="url(#SVGID_18_)"
       d="m 37.521,145.85 c 0,0 -4.388,0.721 -7.121,0.728 -4.414,0.01 -11.17,-1.83 -11.17,-1.83 0,0 6.736,2.038 11.17,2.128 2.727,0.055 7.121,-0.578 7.121,-0.578 l 0,-0.448 z"
       id="path233"
       inkscape:connector-curvature="0" /><path
       transform="matrix(-2.9504505,-6.3272619,-6.3272619,2.9504505,1419.0143,42.08228)"
       clip-path="url(#SVGID_18_)"
       stroke-miterlimit="3.864"
       d="m 37.521,145.85 c 0,0 -4.388,0.721 -7.121,0.728 -4.414,0.01 -11.17,-1.83 -11.17,-1.83 0,0 6.736,2.038 11.17,2.128 2.727,0.055 7.121,-0.578 7.121,-0.578 l 0,-0.448 z"
       id="path235"
       inkscape:connector-curvature="0"
       style="fill:none;stroke:#000000;stroke-width:0.149;stroke-linecap:round;stroke-linejoin:round;stroke-miterlimit:3.86400008" /><path
       transform="matrix(-2.9504505,-6.3272619,-6.3272619,2.9504505,1419.0143,42.08228)"
       clip-path="url(#SVGID_18_)"
       stroke-miterlimit="3.864"
       d="m 25.597,92.84 c -0.084,0.188 -0.333,0.1 -0.281,-0.099 0.036,-0.138 0.009,-0.305 -0.077,-0.512 -0.088,-0.214 -0.224,-0.442 -0.368,-0.684 -0.15,-0.253 -0.309,-0.519 -0.435,-0.796 -0.127,-0.282 -0.225,-0.584 -0.245,-0.899 -0.018,-0.31 0.042,-0.632 0.204,-0.745 0.145,-0.102 0.283,-0.011 0.349,0.095 0.062,0.098 0.104,0.252 0.129,0.455 0.049,0.382 0.279,0.873 0.539,1.259 0.129,0.192 0.26,0.35 0.371,0.45 0.056,0.051 0.101,0.082 0.133,0.097 0.016,0.008 0.024,0.01 0.027,0.01 l 0.176,0.203 -0.522,1.166 z"
       id="path237"
       inkscape:connector-curvature="0"
       style="fill:none;stroke:#000000;stroke-width:0.373;stroke-linecap:round;stroke-linejoin:round;stroke-miterlimit:3.86400008" /><path
       transform="matrix(-2.9504505,-6.3272619,-6.3272619,2.9504505,1419.0143,42.08228)"
       clip-path="url(#SVGID_18_)"
       d="m 51.096,153.556 c -0.022,-0.915 0.159,-0.574 1.145,-0.172 0.21,0.085 0.055,0.291 -0.125,0.403 -0.589,0.368 -1.109,1.148 -1.359,0.973 -0.678,-0.474 -0.252,-0.491 0.339,-1.204"
       id="path239"
       inkscape:connector-curvature="0" /><path
       transform="matrix(-2.9504505,-6.3272619,-6.3272619,2.9504505,1419.0143,42.08228)"
       clip-path="url(#SVGID_18_)"
       stroke-miterlimit="3.864"
       d="m 51.096,153.556 c -0.022,-0.915 0.159,-0.574 1.145,-0.172 0.21,0.085 0.055,0.291 -0.125,0.403 -0.589,0.368 -1.109,1.148 -1.359,0.973 -0.678,-0.474 -0.252,-0.491 0.339,-1.204 z"
       id="path241"
       inkscape:connector-curvature="0"
       style="fill:none;stroke:#000000;stroke-width:0.373;stroke-linecap:round;stroke-linejoin:round;stroke-miterlimit:3.86400008" /><path
       transform="matrix(-2.9504505,-6.3272619,-6.3272619,2.9504505,1419.0143,42.08228)"
       clip-path="url(#SVGID_18_)"
       d="m 27.542,89.014 c -2.902,7.378 -3.882,20.442 -2.878,26.374 3.086,18.238 18.107,35.336 31.857,38.099 11.959,2.404 19.249,7.762 24.01,13.477 3.112,3.735 4.773,5.431 9.241,12.869 1.633,2.718 -1.16,3.268 -2.312,1.014 -3.145,-6.148 -4.838,-8.88 -9.17,-13.713 -4.652,-5.19 -11.495,-9.85 -22.664,-12.079 -13.319,-2.659 -28.921,-19.787 -32.007,-38.024 -1.004,-5.933 -0.126,-20.098 2.92,-27.585 l 1.003,-0.432 z"
       id="path243"
       inkscape:connector-curvature="0" /><path
       transform="matrix(-2.9504505,-6.3272619,-6.3272619,2.9504505,1419.0143,42.08228)"
       clip-path="url(#SVGID_18_)"
       stroke-miterlimit="3.864"
       d="m 27.542,89.014 c -2.902,7.378 -3.882,20.442 -2.878,26.374 3.086,18.238 18.107,35.336 31.857,38.099 11.959,2.404 19.249,7.762 24.01,13.477 3.112,3.735 4.773,5.431 9.241,12.869 1.633,2.718 -1.16,3.268 -2.312,1.014 -3.145,-6.148 -4.838,-8.88 -9.17,-13.713 -4.652,-5.19 -11.495,-9.85 -22.664,-12.079 -13.319,-2.659 -28.921,-19.787 -32.007,-38.024 -1.004,-5.933 -0.126,-20.098 2.92,-27.585 l 1.003,-0.432 z"
       id="path245"
       inkscape:connector-curvature="0"
       style="fill:none;stroke:#000000;stroke-width:0.44800001;stroke-linecap:round;stroke-linejoin:round;stroke-miterlimit:3.86400008" /><path
       transform="matrix(-2.9504505,-6.3272619,-6.3272619,2.9504505,1419.0143,42.08228)"
       clip-path="url(#SVGID_18_)"
       d="m 47.351,152.78 c -2.072,0.227 -3.473,3.235 -5.552,5.128 -3.828,3.484 -9.962,3.832 -13.873,1.505 -0.164,-0.098 -0.247,-0.316 -0.062,-0.359 4.863,-1.103 5.497,-7.739 15.634,-7.086 1.188,0.077 1.69,0.32 2.883,0.32"
       id="path247"
       inkscape:connector-curvature="0" /><path
       transform="matrix(-2.9504505,-6.3272619,-6.3272619,2.9504505,1419.0143,42.08228)"
       clip-path="url(#SVGID_18_)"
       stroke-miterlimit="3.864"
       d="m 47.351,152.78 c -2.072,0.227 -3.473,3.235 -5.552,5.128 -3.828,3.484 -9.962,3.832 -13.873,1.505 -0.164,-0.098 -0.247,-0.316 -0.062,-0.359 4.863,-1.103 5.497,-7.739 15.634,-7.086 1.188,0.077 1.69,0.32 2.883,0.32"
       id="path249"
       inkscape:connector-curvature="0"
       style="fill:none;stroke:#000000;stroke-width:0.44800001;stroke-linecap:round;stroke-linejoin:round;stroke-miterlimit:3.86400008" /><path
       transform="matrix(-2.9504505,-6.3272619,-6.3272619,2.9504505,1419.0143,42.08228)"
       clip-path="url(#SVGID_18_)"
       d="m 39.654,121.924 0.067,0.033 c 0.051,2.964 2.299,7.007 2.85,10.267 0.475,2.808 -0.21,5.155 -1.286,7.771 -0.269,0.652 -0.9,1.962 -0.925,2.604 -0.023,0.598 0.352,1.151 0.669,1.646 0.111,0.174 0.782,1.055 0.713,1.226 -2.686,-2.326 -1.106,-0.81 -2.224,-2.954 -0.576,-1.106 -1.263,-2.11 -1.834,-3.224 -3.016,-5.88 -3.071,-12.552 1.97,-17.369"
       id="path251"
       inkscape:connector-curvature="0" /><path
       transform="matrix(-2.9504505,-6.3272619,-6.3272619,2.9504505,1419.0143,42.08228)"
       clip-path="url(#SVGID_18_)"
       stroke-miterlimit="3.864"
       d="m 39.654,121.924 0.067,0.033 c 0.051,2.964 2.299,7.007 2.85,10.267 0.475,2.808 -0.21,5.155 -1.286,7.771 -0.269,0.652 -0.9,1.962 -0.925,2.604 -0.023,0.598 0.352,1.151 0.669,1.646 0.111,0.174 0.782,1.055 0.713,1.226 -2.686,-2.326 -1.106,-0.81 -2.224,-2.954 -0.576,-1.106 -1.263,-2.11 -1.834,-3.224 -3.016,-5.88 -3.071,-12.552 1.97,-17.369 z"
       id="path253"
       inkscape:connector-curvature="0"
       style="fill:none;stroke:#000000;stroke-width:0.44800001;stroke-linecap:round;stroke-linejoin:round;stroke-miterlimit:3.86400008" /><path
       transform="matrix(-2.9504505,-6.3272619,-6.3272619,2.9504505,1419.0143,42.08228)"
       clip-path="url(#SVGID_18_)"
       d="m 59.039,154.05 c -1.319,-0.426 -2.662,-0.952 -3.387,-2.302 -1.216,-2.266 -0.956,-4.098 -2.203,-6.443 -2.366,-4.449 -6.921,-4.928 -9.22,-9.052 -0.466,3.795 -0.975,9.465 4.933,13.52 2.08,1.427 5.251,1.755 6.016,2.328 0.765,0.573 1.225,1.392 1.225,1.392"
       id="path255"
       inkscape:connector-curvature="0" /><path
       transform="matrix(-2.9504505,-6.3272619,-6.3272619,2.9504505,1419.0143,42.08228)"
       clip-path="url(#SVGID_18_)"
       stroke-miterlimit="3.864"
       d="m 59.039,154.05 c -1.319,-0.426 -2.662,-0.952 -3.387,-2.302 -1.216,-2.266 -0.956,-4.098 -2.203,-6.443 -2.366,-4.449 -6.921,-4.928 -9.22,-9.052 -0.466,3.795 -0.975,9.465 4.933,13.52 2.08,1.427 5.251,1.755 6.016,2.328 0.765,0.573 1.225,1.392 1.225,1.392"
       id="path257"
       inkscape:connector-curvature="0"
       style="fill:none;stroke:#000000;stroke-width:0.44800001;stroke-linecap:round;stroke-linejoin:round;stroke-miterlimit:3.86400008" /><path
       transform="matrix(-2.9504505,-6.3272619,-6.3272619,2.9504505,1419.0143,42.08228)"
       clip-path="url(#SVGID_18_)"
       d="m 56.48,153.356 c -0.435,-0.462 -0.921,-0.927 -1.437,-1.3 -1.206,-0.872 -3.817,-0.954 -5.788,-2.399 -2.753,-2.019 -4.18,-3.896 -4.945,-7.223 -0.464,-2.018 -0.107,-3.631 -0.012,-5.309 2.48,3.602 6.788,3.941 9.093,8.25 1.401,2.618 1.215,6.6 4.086,8.192 l -0.997,-0.211 z"
       id="path259"
       inkscape:connector-curvature="0"
       style="fill:#899066" /><path
       transform="matrix(-2.9504505,-6.3272619,-6.3272619,2.9504505,1419.0143,42.08228)"
       clip-path="url(#SVGID_18_)"
       stroke-miterlimit="3.864"
       d="m 56.48,153.356 c -0.435,-0.462 -0.921,-0.927 -1.437,-1.3 -1.206,-0.872 -3.817,-0.954 -5.788,-2.399 -2.753,-2.019 -4.18,-3.896 -4.945,-7.223 -0.464,-2.018 -0.107,-3.631 -0.012,-5.309 2.48,3.602 6.788,3.941 9.093,8.25 1.401,2.618 1.215,6.6 4.086,8.192 l -0.997,-0.211 z"
       id="path261"
       inkscape:connector-curvature="0"
       style="fill:none;stroke:#000000;stroke-width:0.44800001;stroke-linecap:round;stroke-linejoin:round;stroke-miterlimit:3.86400008" /><path
       transform="matrix(-2.9504505,-6.3272619,-6.3272619,2.9504505,1419.0143,42.08228)"
       clip-path="url(#SVGID_18_)"
       d="m 32.934,133.545 c 0,0 -0.164,0.198 -0.395,0.856 -0.103,0.296 0.546,1.187 0.493,0.878 -0.132,-0.756 0.24,-1.288 0.24,-1.288"
       id="path263"
       inkscape:connector-curvature="0" /><path
       transform="matrix(-2.9504505,-6.3272619,-6.3272619,2.9504505,1419.0143,42.08228)"
       clip-path="url(#SVGID_18_)"
       stroke-miterlimit="3.864"
       d="m 32.934,133.545 c 0,0 -0.164,0.198 -0.395,0.856 -0.103,0.296 0.546,1.187 0.493,0.878 -0.132,-0.756 0.24,-1.288 0.24,-1.288"
       id="path265"
       inkscape:connector-curvature="0"
       style="fill:none;stroke:#000000;stroke-width:0.373;stroke-linecap:round;stroke-linejoin:round;stroke-miterlimit:3.86400008" /><path
       transform="matrix(-2.9504505,-6.3272619,-6.3272619,2.9504505,1419.0143,42.08228)"
       clip-path="url(#SVGID_18_)"
       d="m 33.939,138.54 c 0,0 -1.582,-0.341 -2.282,-0.69 -1.216,-0.609 -3.908,-4.14 -7.019,-5.907 -4.46,-2.533 -8.345,-2.004 -12.733,-3.287 1.245,4.683 3.625,7.484 8.046,9.469 3.959,1.777 10.423,0.24 11.123,0.298 0.7,0.059 2.923,0.992 2.923,0.992"
       id="path267"
       inkscape:connector-curvature="0"
       style="fill:#899066" /><path
       transform="matrix(-2.9504505,-6.3272619,-6.3272619,2.9504505,1419.0143,42.08228)"
       clip-path="url(#SVGID_18_)"
       stroke-miterlimit="3.864"
       d="m 33.939,138.54 c 0,0 -1.582,-0.341 -2.282,-0.69 -1.216,-0.609 -3.908,-4.14 -7.019,-5.907 -4.46,-2.533 -8.345,-2.004 -12.733,-3.287 1.245,4.683 3.625,7.484 8.046,9.469 3.959,1.777 10.423,0.24 11.123,0.298 0.7,0.059 2.923,0.992 2.923,0.992"
       id="path269"
       inkscape:connector-curvature="0"
       style="fill:none;stroke:#000000;stroke-width:0.44800001;stroke-linecap:round;stroke-linejoin:round;stroke-miterlimit:3.86400008" /><path
       transform="matrix(-2.9504505,-6.3272619,-6.3272619,2.9504505,1419.0143,42.08228)"
       clip-path="url(#SVGID_18_)"
       d="m 40.217,143.905 c -0.196,-1.393 -1.779,-3.398 -2.442,-4.695 -0.971,-1.901 -1.7,-3.976 -1.917,-6.108 -0.468,-4.593 0.586,-7.071 3.609,-10.475 0.022,0.998 0.156,1.348 0.457,2.276 1.265,3.897 3.036,7.118 2.462,11.355 -0.283,2.086 -1.986,5.056 -2.064,6.331 -0.04,0.66 0.333,1.435 0.662,1.991 l -0.767,-0.675 z"
       id="path271"
       inkscape:connector-curvature="0"
       style="fill:#395c35" /><path
       transform="matrix(-2.9504505,-6.3272619,-6.3272619,2.9504505,1419.0143,42.08228)"
       clip-path="url(#SVGID_18_)"
       stroke-miterlimit="3.864"
       d="m 40.217,143.905 c -0.196,-1.393 -1.779,-3.398 -2.442,-4.695 -0.971,-1.901 -1.7,-3.976 -1.917,-6.108 -0.468,-4.593 0.586,-7.071 3.609,-10.475 0.022,0.998 0.156,1.348 0.457,2.276 1.265,3.897 3.036,7.118 2.462,11.355 -0.283,2.086 -1.986,5.056 -2.064,6.331 -0.04,0.66 0.333,1.435 0.662,1.991 l -0.767,-0.675 z"
       id="path273"
       inkscape:connector-curvature="0"
       style="fill:none;stroke:#000000;stroke-width:0.44800001;stroke-linecap:round;stroke-linejoin:round;stroke-miterlimit:3.86400008" /><path
       transform="matrix(-2.9504505,-6.3272619,-6.3272619,2.9504505,1419.0143,42.08228)"
       clip-path="url(#SVGID_18_)"
       d="m 28.872,131.483 c -3.244,-5.393 -10.853,-2.976 -15.839,-7.504 -2.42,-2.198 -3.501,-5.506 -3.984,-8.652 -0.144,-0.937 -0.544,-4.651 -0.326,-5.372 0.04,-0.134 0.175,-0.166 0.279,-0.064 1.653,1.616 3.31,2.66 5.224,3.956 4.546,3.077 6.412,5.965 8.755,10.763 3.067,6.284 5.849,2.703 5.891,6.873"
       id="path275"
       inkscape:connector-curvature="0" /><path
       transform="matrix(-2.9504505,-6.3272619,-6.3272619,2.9504505,1419.0143,42.08228)"
       clip-path="url(#SVGID_18_)"
       stroke-miterlimit="3.864"
       d="m 28.872,131.483 c -3.244,-5.393 -10.853,-2.976 -15.839,-7.504 -2.42,-2.198 -3.501,-5.506 -3.984,-8.652 -0.144,-0.937 -0.544,-4.651 -0.326,-5.372 0.04,-0.134 0.175,-0.166 0.279,-0.064 1.653,1.616 3.31,2.66 5.224,3.956 4.546,3.077 6.412,5.965 8.755,10.763 3.067,6.284 5.849,2.703 5.891,6.873 z"
       id="path277"
       inkscape:connector-curvature="0"
       style="fill:none;stroke:#000000;stroke-width:0.44800001;stroke-linecap:round;stroke-linejoin:round;stroke-miterlimit:3.86400008" /><path
       transform="matrix(-2.9504505,-6.3272619,-6.3272619,2.9504505,1419.0143,42.08228)"
       clip-path="url(#SVGID_18_)"
       d="m 38.99,124.252 c 0,0 -1.03,5.395 -0.874,8.865 0.16,3.545 1.732,8.934 1.732,8.934 l -0.299,0 c 0,0 -1.63,-5.386 -1.731,-8.934 -0.1,-3.486 1.172,-8.865 1.172,-8.865"
       id="path279"
       inkscape:connector-curvature="0"
       style="clip-rule:evenodd;fill-rule:evenodd" /><path
       transform="matrix(-2.9504505,-6.3272619,-6.3272619,2.9504505,1419.0143,42.08228)"
       clip-path="url(#SVGID_18_)"
       stroke-miterlimit="3.864"
       d="m 38.99,124.252 c 0,0 -1.03,5.395 -0.874,8.865 0.16,3.545 1.732,8.934 1.732,8.934 l -0.299,0 c 0,0 -1.63,-5.386 -1.731,-8.934 -0.1,-3.486 1.172,-8.865 1.172,-8.865 z"
       id="path281"
       inkscape:connector-curvature="0"
       style="fill:none;stroke:#000000;stroke-width:0.149;stroke-linecap:round;stroke-linejoin:round;stroke-miterlimit:3.86400008" /><path
       transform="matrix(-2.9504505,-6.3272619,-6.3272619,2.9504505,1419.0143,42.08228)"
       clip-path="url(#SVGID_18_)"
       d="m 28.289,130.606 c -2.235,-2.615 -5.922,-2.944 -10.09,-3.948 -1.994,-0.48 -3.622,-1.569 -5.142,-2.939 -2.36,-2.128 -3.14,-4.981 -3.6,-8.042 -0.258,-1.716 -0.328,-3.379 -0.213,-5.116 0.19,0.335 0.431,0.666 0.746,0.892 1.548,1.109 3.161,1.883 4.712,3.003 1.355,0.979 2.317,1.625 3.428,2.877 1.405,1.585 2.578,3.298 3.566,5.169 0.779,1.477 1.447,3.208 2.454,4.548 0.522,0.696 2.628,1.6 3.394,1.698 l 0.745,1.858 z"
       id="path283"
       inkscape:connector-curvature="0"
       style="fill:#899066" /><g
       transform="matrix(-2.9504505,-6.3272619,-6.3272619,2.9504505,1419.0143,42.08228)"
       id="g285"><defs
         id="defs287"><path
           inkscape:connector-curvature="0"
           d="m 9.458,115.678 c 0.46,3.061 1.24,5.914 3.6,8.042 1.52,1.37 3.148,2.459 5.142,2.939 4.168,1.004 7.855,1.333 10.09,3.947 l -0.746,-1.857 c -0.765,-0.098 -2.871,-1.003 -3.393,-1.698 -1.007,-1.341 -1.675,-3.071 -2.455,-4.548 -0.988,-1.871 -2.161,-3.585 -3.566,-5.169 -1.11,-1.252 -2.072,-1.898 -3.428,-2.877 -1.55,-1.121 -3.163,-1.894 -4.711,-3.003 -0.315,-0.226 -0.556,-0.558 -0.746,-0.892 -0.116,1.736 -0.045,3.399 0.213,5.116"
           id="SVGID_19_" /></defs><clipPath
         id="SVGID_20_"><use
           height="100%"
           width="100%"
           y="0"
           x="0"
           style="overflow:visible"
           id="use291"
           overflow="visible"
           xlink:href="#SVGID_19_" /></clipPath><path
         style="fill:#a17e4a"
         inkscape:connector-curvature="0"
         id="path293"
         d="m 24.448,127.144 -0.253,0.674 0.042,0.463 1.096,0.295 3.075,2.023 c 0,0 -0.842,-1.98 -1.011,-2.065 -0.168,-0.084 -1.18,-0.295 -1.18,-0.295 l -1.769,-1.095 z"
         clip-path="url(#SVGID_20_)" /></g><g
       transform="matrix(-2.9504505,-6.3272619,-6.3272619,2.9504505,1419.0143,42.08228)"
       id="g295"><defs
         id="defs297"><rect
           height="174.58701"
           width="145.356"
           y="8.0450001"
           x="8.2799997"
           id="SVGID_21_" /></defs><clipPath
         id="SVGID_22_"><use
           height="100%"
           width="100%"
           y="0"
           x="0"
           style="overflow:visible"
           id="use301"
           overflow="visible"
           xlink:href="#SVGID_21_" /></clipPath><path
         style="fill:none;stroke:#000000;stroke-width:0.44800001;stroke-linecap:round;stroke-linejoin:round;stroke-miterlimit:3.86400008"
         inkscape:connector-curvature="0"
         id="path303"
         d="m 28.289,130.606 c -2.235,-2.615 -5.922,-2.944 -10.09,-3.948 -1.994,-0.48 -3.622,-1.569 -5.142,-2.939 -2.36,-2.128 -3.14,-4.981 -3.6,-8.042 -0.258,-1.716 -0.328,-3.379 -0.213,-5.116 0.19,0.335 0.431,0.666 0.746,0.892 1.548,1.109 3.161,1.883 4.712,3.003 1.355,0.979 2.317,1.625 3.428,2.877 1.405,1.585 2.578,3.298 3.566,5.169 0.779,1.477 1.447,3.208 2.454,4.548 0.522,0.696 2.628,1.6 3.394,1.698 l 0.745,1.858 z"
         stroke-miterlimit="3.864"
         clip-path="url(#SVGID_22_)" /><path
         style="fill:#d99c1b"
         inkscape:connector-curvature="0"
         id="path305"
         d="m 19.258,110.897 c 1.175,0 2.127,0.952 2.127,2.127 0,1.175 -0.952,2.128 -2.127,2.128 -1.175,0 -2.127,-0.953 -2.127,-2.128 0,-1.175 0.952,-2.127 2.127,-2.127"
         clip-path="url(#SVGID_22_)" /></g><g
       transform="matrix(-2.9504505,-6.3272619,-6.3272619,2.9504505,1419.0143,42.08228)"
       id="g307"><defs
         id="defs309"><path
           inkscape:connector-curvature="0"
           d="m 17.13,113.024 c 0,1.175 0.953,2.128 2.128,2.128 1.175,0 2.127,-0.953 2.127,-2.128 0,-1.175 -0.952,-2.128 -2.127,-2.128 -1.175,0 -2.128,0.954 -2.128,2.128"
           id="SVGID_23_" /></defs><clipPath
         id="SVGID_24_"><use
           height="100%"
           width="100%"
           y="0"
           x="0"
           style="overflow:visible"
           id="use313"
           overflow="visible"
           xlink:href="#SVGID_23_" /></clipPath><path
         style="fill:#f2be1a"
         inkscape:connector-curvature="0"
         id="path315"
         d="m 19.333,111.997 c 0,-0.939 0.552,-1.699 1.232,-1.699 0.681,0 1.233,0.76 1.233,1.699 0,0.938 -0.552,1.699 -1.233,1.699 -0.68,0 -1.232,-0.761 -1.232,-1.699"
         clip-path="url(#SVGID_24_)" /></g><circle
       transform="matrix(-2.9504505,-6.3272619,-6.3272619,2.9504505,1419.0143,42.08228)"
       clip-path="url(#SVGID_26_)"
       stroke-miterlimit="3.864"
       cx="19.257999"
       cy="113.025"
       r="2.128"
       id="circle325"
       style="fill:none;stroke:#000000;stroke-width:0.44800001;stroke-linecap:round;stroke-linejoin:round;stroke-miterlimit:3.86400008" /><path
       transform="matrix(-2.9504505,-6.3272619,-6.3272619,2.9504505,1419.0143,42.08228)"
       clip-path="url(#SVGID_26_)"
       d="m 25.544,112.081 c 0,0 0.993,-3.697 1.928,-5.985 2.211,-5.416 6.045,-5.62 7.999,-9.909 1.119,2.896 2.012,6.619 0.058,10.795 -2.256,4.824 -8.028,7.655 -8.028,7.655 l -1.957,-2.556 z"
       id="path327"
       inkscape:connector-curvature="0" /><path
       transform="matrix(-2.9504505,-6.3272619,-6.3272619,2.9504505,1419.0143,42.08228)"
       clip-path="url(#SVGID_26_)"
       stroke-miterlimit="3.864"
       d="m 25.544,112.081 c 0,0 0.993,-3.697 1.928,-5.985 2.211,-5.416 6.045,-5.62 7.999,-9.909 1.119,2.896 2.012,6.619 0.058,10.795 -2.256,4.824 -8.028,7.655 -8.028,7.655 l -1.957,-2.556 z"
       id="path329"
       inkscape:connector-curvature="0"
       style="fill:none;stroke:#000000;stroke-width:0.44800001;stroke-linecap:round;stroke-linejoin:round;stroke-miterlimit:3.86400008" /><path
       transform="matrix(-2.9504505,-6.3272619,-6.3272619,2.9504505,1419.0143,42.08228)"
       clip-path="url(#SVGID_26_)"
       d="m 35.454,97.159 c 2.881,7.865 -0.923,13.528 -7.908,17.433 l -1.84,-2.543 c 1.201,-5.051 2.063,-7.538 5.922,-11.127 1.525,-1.419 2.862,-1.88 3.826,-3.763"
       id="path331"
       inkscape:connector-curvature="0"
       style="fill:#395c35" /><path
       transform="matrix(-2.9504505,-6.3272619,-6.3272619,2.9504505,1419.0143,42.08228)"
       clip-path="url(#SVGID_26_)"
       stroke-miterlimit="3.864"
       d="m 35.454,97.159 c 2.881,7.865 -0.923,13.528 -7.908,17.433 l -1.84,-2.543 c 1.201,-5.051 2.063,-7.538 5.922,-11.127 1.525,-1.419 2.862,-1.88 3.826,-3.763 z"
       id="path333"
       inkscape:connector-curvature="0"
       style="fill:none;stroke:#000000;stroke-width:0.44800001;stroke-linecap:round;stroke-linejoin:round;stroke-miterlimit:3.86400008" /><path
       transform="matrix(-2.9504505,-6.3272619,-6.3272619,2.9504505,1419.0143,42.08228)"
       clip-path="url(#SVGID_26_)"
       d="m 27.327,89.365 c -2.876,7.559 -3.726,20.199 -2.736,26.048 3.094,18.281 18.074,35.442 31.9,38.22 11.923,2.396 19.051,7.766 23.961,13.315 2.293,2.593 4.143,5.125 5.666,7.509 1.31,2.051 2.432,4.289 3.534,6.06 0.178,0.286 -1.311,0.901 -1.468,0.647 -1.165,-1.883 -2.235,-4.258 -3.577,-6.433 -1.527,-2.474 -4.15,-5.005 -6.432,-7.698 -4.854,-5.731 -11.317,-10.038 -22.521,-12.274 -13.246,-2.644 -28.662,-19.563 -31.74,-37.754 -1,-5.91 -0.263,-19.626 2.37,-26.867"
       id="path335"
       inkscape:connector-curvature="0"
       style="fill:#a17e4a" /><path
       transform="matrix(-2.9504505,-6.3272619,-6.3272619,2.9504505,1419.0143,42.08228)"
       clip-path="url(#SVGID_26_)"
       stroke-miterlimit="3.864"
       d="m 27.327,89.365 c -2.876,7.559 -3.726,20.199 -2.736,26.048 3.094,18.281 18.074,35.442 31.9,38.22 11.923,2.396 19.051,7.766 23.961,13.315 2.293,2.593 4.143,5.125 5.666,7.509 1.31,2.051 2.432,4.289 3.534,6.06 0.178,0.286 -1.311,0.901 -1.468,0.647 -1.165,-1.883 -2.235,-4.258 -3.577,-6.433 -1.527,-2.474 -4.15,-5.005 -6.432,-7.698 -4.854,-5.731 -11.317,-10.038 -22.521,-12.274 -13.246,-2.644 -28.662,-19.563 -31.74,-37.754 -1,-5.91 -0.263,-19.626 2.37,-26.867"
       id="path337"
       inkscape:connector-curvature="0"
       style="fill:none;stroke:#000000;stroke-width:0.44800001;stroke-linecap:round;stroke-linejoin:round;stroke-miterlimit:3.86400008" /><path
       transform="matrix(-2.9504505,-6.3272619,-6.3272619,2.9504505,1419.0143,42.08228)"
       clip-path="url(#SVGID_26_)"
       d="m 25.884,125.134 c -0.594,-0.569 -1.449,-1.112 -2.02,-1.705 -5.311,-5.512 -3.916,-15.141 1.909,-19.844 0.198,-0.159 0.348,-0.084 0.376,0.15 0.234,1.94 0.536,3.766 1.314,5.903 1.777,4.881 2.067,7.68 0.452,11.836 -0.985,2.533 0.003,4.767 0.003,4.767"
       id="path339"
       inkscape:connector-curvature="0" /><path
       transform="matrix(-2.9504505,-6.3272619,-6.3272619,2.9504505,1419.0143,42.08228)"
       clip-path="url(#SVGID_26_)"
       stroke-miterlimit="3.864"
       d="m 25.884,125.134 c -0.594,-0.569 -1.449,-1.112 -2.02,-1.705 -5.311,-5.512 -3.916,-15.141 1.909,-19.844 0.198,-0.159 0.348,-0.084 0.376,0.15 0.234,1.94 0.536,3.766 1.314,5.903 1.777,4.881 2.067,7.68 0.452,11.836 -0.985,2.533 0.003,4.767 0.003,4.767"
       id="path341"
       inkscape:connector-curvature="0"
       style="fill:none;stroke:#000000;stroke-width:0.44800001;stroke-linecap:round;stroke-linejoin:round;stroke-miterlimit:3.86400008" /><path
       transform="matrix(-2.9504505,-6.3272619,-6.3272619,2.9504505,1419.0143,42.08228)"
       clip-path="url(#SVGID_26_)"
       d="m 44.613,148.868 c -3.398,-1.162 -6.908,-0.85 -9.734,-3.783 -3.261,-3.383 -3.967,-8.616 -3.115,-11.638 0.042,-0.147 0.156,-0.267 0.248,-0.154 0.724,0.887 1.108,1.525 2.06,2.227 3.404,2.511 7.583,3.769 9.026,7.605 0.288,0.763 0.383,1.563 0.652,2.332 0.919,2.635 2.427,3.431 4.611,4.87"
       id="path343"
       inkscape:connector-curvature="0" /><path
       transform="matrix(-2.9504505,-6.3272619,-6.3272619,2.9504505,1419.0143,42.08228)"
       clip-path="url(#SVGID_26_)"
       stroke-miterlimit="3.864"
       d="m 44.613,148.868 c -3.398,-1.162 -6.908,-0.85 -9.734,-3.783 -3.261,-3.383 -3.967,-8.616 -3.115,-11.638 0.042,-0.147 0.156,-0.267 0.248,-0.154 0.724,0.887 1.108,1.525 2.06,2.227 3.404,2.511 7.583,3.769 9.026,7.605 0.288,0.763 0.383,1.563 0.652,2.332 0.919,2.635 2.427,3.431 4.611,4.87"
       id="path345"
       inkscape:connector-curvature="0"
       style="fill:none;stroke:#000000;stroke-width:0.29899999;stroke-linecap:round;stroke-linejoin:round;stroke-miterlimit:3.86400008" /><path
       transform="matrix(-2.9504505,-6.3272619,-6.3272619,2.9504505,1419.0143,42.08228)"
       clip-path="url(#SVGID_26_)"
       d="m 47.268,150.267 c -3.179,-2.696 -8.908,-1.728 -12.32,-5.385 -2.505,-2.685 -3.561,-6.919 -2.94,-10.591 3.028,2.698 6.549,3.439 9.303,6.468 3.241,3.566 0.481,5.959 6.583,9.429"
       id="path347"
       inkscape:connector-curvature="0"
       style="fill:#899066" /><path
       transform="matrix(-2.9504505,-6.3272619,-6.3272619,2.9504505,1419.0143,42.08228)"
       clip-path="url(#SVGID_26_)"
       stroke-miterlimit="3.864"
       d="m 47.268,150.267 c -3.179,-2.696 -8.908,-1.728 -12.32,-5.385 -2.505,-2.685 -3.561,-6.919 -2.94,-10.591 3.028,2.698 6.549,3.439 9.303,6.468 3.241,3.566 0.481,5.959 6.583,9.429"
       id="path349"
       inkscape:connector-curvature="0"
       style="fill:none;stroke:#000000;stroke-width:0.44800001;stroke-linecap:round;stroke-linejoin:round;stroke-miterlimit:3.86400008" /><path
       transform="matrix(-2.9504505,-6.3272619,-6.3272619,2.9504505,1419.0143,42.08228)"
       clip-path="url(#SVGID_26_)"
       d="m 30.29,130.919 0.009,-0.083 c 0.79,-0.941 0.242,-3.768 -0.017,-4.901 -0.447,-1.953 -0.502,-3.632 -0.177,-5.621 0.375,-2.297 1.633,-4.371 2.922,-6.273 0.575,-0.847 2.442,-3.495 2.636,-4.454 0.016,-0.082 0.103,-0.076 0.139,0.003 0.712,1.552 1.084,3.442 1.371,5.12 0.401,2.35 0.527,4.486 -0.289,7.158 -0.73,2.392 -1.711,3.94 -3.214,5.549 -0.636,0.68 -2.132,2.179 -2.351,2.989 -0.04,0.148 -0.294,1.226 -0.238,2.015 l -0.791,-1.502 z"
       id="path351"
       inkscape:connector-curvature="0" /><path
       transform="matrix(-2.9504505,-6.3272619,-6.3272619,2.9504505,1419.0143,42.08228)"
       clip-path="url(#SVGID_26_)"
       stroke-miterlimit="3.864"
       d="m 30.29,130.919 0.009,-0.083 c 0.79,-0.941 0.242,-3.768 -0.017,-4.901 -0.447,-1.953 -0.502,-3.632 -0.177,-5.621 0.375,-2.297 1.633,-4.371 2.922,-6.273 0.575,-0.847 2.442,-3.495 2.636,-4.454 0.016,-0.082 0.103,-0.076 0.139,0.003 0.712,1.552 1.084,3.442 1.371,5.12 0.401,2.35 0.527,4.486 -0.289,7.158 -0.73,2.392 -1.711,3.94 -3.214,5.549 -0.636,0.68 -2.132,2.179 -2.351,2.989 -0.04,0.148 -0.294,1.226 -0.238,2.015 l -0.791,-1.502 z"
       id="path353"
       inkscape:connector-curvature="0"
       style="fill:none;stroke:#000000;stroke-width:0.44800001;stroke-linecap:round;stroke-linejoin:round;stroke-miterlimit:3.86400008" /><path
       transform="matrix(-2.9504505,-6.3272619,-6.3272619,2.9504505,1419.0143,42.08228)"
       clip-path="url(#SVGID_26_)"
       d="m 25.027,100.002 c 0,0 0.101,0.015 0.527,-0.271 0.426,-0.285 0.942,-0.776 1.161,-1.389 0.219,-0.612 1.754,-5.713 3.804,-8.87 2.395,-3.689 4.882,-5.343 7.898,-8.05 0.474,2.923 0.543,7.687 -1.928,11.51 -2.263,3.5 -8.001,5.993 -8.666,6.253 -0.665,0.26 -1.805,0.452 -2.46,1.322 -0.371,0.491 -0.626,1.448 -0.626,1.448"
       id="path355"
       inkscape:connector-curvature="0" /><path
       transform="matrix(-2.9504505,-6.3272619,-6.3272619,2.9504505,1419.0143,42.08228)"
       clip-path="url(#SVGID_26_)"
       stroke-miterlimit="3.864"
       d="m 25.027,100.002 c 0,0 0.101,0.015 0.527,-0.271 0.426,-0.285 0.942,-0.776 1.161,-1.389 0.219,-0.612 1.754,-5.713 3.804,-8.87 2.395,-3.689 4.882,-5.343 7.898,-8.05 0.474,2.923 0.543,7.687 -1.928,11.51 -2.263,3.5 -8.001,5.993 -8.666,6.253 -0.665,0.26 -1.805,0.452 -2.46,1.322 -0.371,0.491 -0.626,1.448 -0.626,1.448"
       id="path357"
       inkscape:connector-curvature="0"
       style="fill:none;stroke:#000000;stroke-width:0.45500001;stroke-linecap:round;stroke-linejoin:round;stroke-miterlimit:3.86400008" /><path
       transform="matrix(-2.9504505,-6.3272619,-6.3272619,2.9504505,1419.0143,42.08228)"
       clip-path="url(#SVGID_26_)"
       d="m 24.307,100.489 c 0,0 -0.249,-0.012 -0.571,-0.466 -0.321,-0.455 -0.644,-1.157 -0.644,-1.878 0,-1.525 1.446,-6.089 0.729,-9.544 -1.369,-6.594 -3.441,-9.238 -3.76,-11.685 -0.127,-0.976 -5.512,6.661 -3.875,13.748 0.812,3.512 4.894,7.438 5.467,7.954 0.573,0.516 1.355,1.185 1.729,2.216 0.385,1.063 0.303,2.273 0.303,2.273"
       id="path359"
       inkscape:connector-curvature="0" /><path
       transform="matrix(-2.9504505,-6.3272619,-6.3272619,2.9504505,1419.0143,42.08228)"
       clip-path="url(#SVGID_26_)"
       stroke-miterlimit="3.864"
       d="m 24.307,100.489 c 0,0 -0.249,-0.012 -0.571,-0.466 -0.321,-0.455 -0.644,-1.157 -0.644,-1.878 0,-1.525 1.446,-6.089 0.729,-9.544 -1.369,-6.594 -3.441,-9.238 -3.76,-11.685 -0.127,-0.976 -5.512,6.661 -3.875,13.748 0.812,3.512 4.894,7.438 5.467,7.954 0.573,0.516 1.355,1.185 1.729,2.216 0.385,1.063 0.303,2.273 0.303,2.273"
       id="path361"
       inkscape:connector-curvature="0"
       style="fill:none;stroke:#000000;stroke-width:0.44800001;stroke-linecap:round;stroke-linejoin:round;stroke-miterlimit:3.86400008" /><path
       transform="matrix(-2.9504505,-6.3272619,-6.3272619,2.9504505,1419.0143,42.08228)"
       clip-path="url(#SVGID_26_)"
       d="m 27.467,89.146 c 0.387,-0.944 1.027,-2.063 1.619,-2.558 1.456,-1.216 5.534,-4.245 6.927,-6.453 3.101,-4.916 2.475,-10.971 2.151,-12.025 -2.689,2.338 -5.143,3.88 -7.884,7.75 -2.393,3.378 -2.916,9.984 -3.1,11.236 -0.202,1.367 -0.809,2.844 -0.809,2.844"
       id="path363"
       inkscape:connector-curvature="0" /><path
       transform="matrix(-2.9504505,-6.3272619,-6.3272619,2.9504505,1419.0143,42.08228)"
       clip-path="url(#SVGID_26_)"
       stroke-miterlimit="3.864"
       d="m 27.467,89.146 c 0.387,-0.944 1.027,-2.063 1.619,-2.558 1.456,-1.216 5.534,-4.245 6.927,-6.453 3.101,-4.916 2.475,-10.971 2.151,-12.025 -2.689,2.338 -5.143,3.88 -7.884,7.75 -2.393,3.378 -2.916,9.984 -3.1,11.236 -0.202,1.367 -0.809,2.844 -0.809,2.844"
       id="path365"
       inkscape:connector-curvature="0"
       style="fill:none;stroke:#000000;stroke-width:0.44800001;stroke-linecap:round;stroke-linejoin:round;stroke-miterlimit:3.86400008" /><circle
       transform="matrix(-2.9504505,-6.3272619,-6.3272619,2.9504505,1419.0143,42.08228)"
       clip-path="url(#SVGID_26_)"
       stroke-miterlimit="3.864"
       cx="19.257999"
       cy="113.024"
       r="2.273"
       id="circle367"
       style="fill:none;stroke:#000000;stroke-width:0.597;stroke-linecap:round;stroke-linejoin:round;stroke-miterlimit:3.86400008" /><path
       transform="matrix(-2.9504505,-6.3272619,-6.3272619,2.9504505,1419.0143,42.08228)"
       clip-path="url(#SVGID_26_)"
       d="m 25.056,101.071 0.108,-0.95 c 0.738,-0.282 1.394,-1.017 1.692,-1.729 1.285,-3.075 2.068,-6.201 3.873,-9.041 2.343,-3.686 4.853,-5.12 7.386,-7.145 0.118,3.258 0.692,6.69 -1.902,10.959 -1.474,2.424 -5.77,4.826 -8.444,5.881 -1.196,0.472 -2.052,0.856 -2.713,2.025"
       id="path373"
       inkscape:connector-curvature="0"
       style="fill:#899066" /><path
       transform="matrix(-2.9504505,-6.3272619,-6.3272619,2.9504505,1419.0143,42.08228)"
       clip-path="url(#SVGID_26_)"
       stroke-miterlimit="3.864"
       d="m 25.056,101.071 0.108,-0.95 c 0.738,-0.282 1.394,-1.017 1.692,-1.729 1.285,-3.075 2.068,-6.201 3.873,-9.041 2.343,-3.686 4.853,-5.12 7.386,-7.145 0.118,3.258 0.692,6.69 -1.902,10.959 -1.474,2.424 -5.77,4.826 -8.444,5.881 -1.196,0.472 -2.052,0.856 -2.713,2.025 z"
       id="path375"
       inkscape:connector-curvature="0"
       style="fill:none;stroke:#000000;stroke-width:0.45500001;stroke-linecap:round;stroke-linejoin:round;stroke-miterlimit:3.86400008" /><path
       transform="matrix(-2.9504505,-6.3272619,-6.3272619,2.9504505,1419.0143,42.08228)"
       clip-path="url(#SVGID_26_)"
       stroke-miterlimit="3.864"
       d="m 29.566,159.399 c 0,0 3.39,-1.004 5.441,-1.933 2.577,-1.167 3.631,-2.614 6.255,-3.672 2.097,-0.845 5.595,-1.52 5.595,-1.52 m -17.291,7.125 c 0,0 3.396,-0.835 5.441,-1.709 2.602,-1.112 3.654,-2.559 6.255,-3.672 2.101,-0.899 5.595,-1.744 5.595,-1.744"
       id="path377"
       inkscape:connector-curvature="0"
       style="fill:none;stroke:#000000;stroke-width:0.29899999;stroke-linecap:round;stroke-linejoin:round;stroke-miterlimit:3.86400008" /><path
       transform="matrix(-2.9504505,-6.3272619,-6.3272619,2.9504505,1419.0143,42.08228)"
       clip-path="url(#SVGID_26_)"
       d="m 14.035,94.575 c 4.099,3.414 5.268,5.01 6.474,10.291 0.141,0.619 0.926,3.292 1.092,3.621 0.395,0.786 1.212,1.158 1.715,1.803 0.055,0.071 0.191,1.462 0.212,1.645 0.013,0.111 -0.072,0.108 -0.135,0.051 -0.638,-0.583 -0.973,-1.496 -1.717,-2.042 -0.64,-0.47 -2.802,-0.931 -3.735,-1.316 -2.382,-0.983 -4.325,-2.822 -5.705,-4.976 -1.821,-2.843 -2.027,-6.714 -1.589,-9.972 0.101,-0.748 0.202,-1.649 0.467,-2.358 0.037,-0.098 0.095,-0.075 0.145,0.003 0.971,1.513 1.595,2.266 2.776,3.25"
       id="path379"
       inkscape:connector-curvature="0" /><path
       transform="matrix(-2.9504505,-6.3272619,-6.3272619,2.9504505,1419.0143,42.08228)"
       clip-path="url(#SVGID_26_)"
       stroke-miterlimit="3.864"
       d="m 14.035,94.575 c 4.099,3.414 5.268,5.01 6.474,10.291 0.141,0.619 0.926,3.292 1.092,3.621 0.395,0.786 1.212,1.158 1.715,1.803 0.055,0.071 0.191,1.462 0.212,1.645 0.013,0.111 -0.072,0.108 -0.135,0.051 -0.638,-0.583 -0.973,-1.496 -1.717,-2.042 -0.64,-0.47 -2.802,-0.931 -3.735,-1.316 -2.382,-0.983 -4.325,-2.822 -5.705,-4.976 -1.821,-2.843 -2.027,-6.714 -1.589,-9.972 0.101,-0.748 0.202,-1.649 0.467,-2.358 0.037,-0.098 0.095,-0.075 0.145,0.003 0.971,1.513 1.595,2.266 2.776,3.25 z"
       id="path381"
       inkscape:connector-curvature="0"
       style="fill:none;stroke:#000000;stroke-width:0.44800001;stroke-linecap:round;stroke-linejoin:round;stroke-miterlimit:3.86400008" /><path
       transform="matrix(-2.9504505,-6.3272619,-6.3272619,2.9504505,1419.0143,42.08228)"
       clip-path="url(#SVGID_26_)"
       d="m 23.126,110.424 0.113,0.966 c -1.946,-2.633 -2.597,-1.855 -5.287,-2.969 -2.342,-0.969 -4.243,-2.776 -5.604,-4.892 -2.032,-3.16 -1.994,-7.836 -1.136,-11.399 1.091,2.151 5.36,4.308 6.998,6.993 1.054,1.727 1.708,3.779 2.231,5.724 0.261,0.973 0.556,2.934 0.958,3.738 0.301,0.601 1.208,1.404 1.727,1.839"
       id="path383"
       inkscape:connector-curvature="0"
       style="fill:#899066" /><path
       transform="matrix(-2.9504505,-6.3272619,-6.3272619,2.9504505,1419.0143,42.08228)"
       clip-path="url(#SVGID_26_)"
       stroke-miterlimit="3.864"
       d="m 23.126,110.424 0.113,0.966 c -1.946,-2.633 -2.597,-1.855 -5.287,-2.969 -2.342,-0.969 -4.243,-2.776 -5.604,-4.892 -2.032,-3.16 -1.994,-7.836 -1.136,-11.399 1.091,2.151 5.36,4.308 6.998,6.993 1.054,1.727 1.708,3.779 2.231,5.724 0.261,0.973 0.556,2.934 0.958,3.738 0.301,0.601 1.208,1.404 1.727,1.839 z"
       id="path385"
       inkscape:connector-curvature="0"
       style="fill:none;stroke:#000000;stroke-width:0.44800001;stroke-linecap:round;stroke-linejoin:round;stroke-miterlimit:3.86400008" /><path
       transform="matrix(-2.9504505,-6.3272619,-6.3272619,2.9504505,1419.0143,42.08228)"
       clip-path="url(#SVGID_26_)"
       d="m 30.531,130.972 c 0.726,-1.109 0.09,-3.919 -0.142,-5.191 -0.358,-1.968 -0.384,-3.668 -0.063,-5.654 0.524,-3.247 2.579,-5.422 4.394,-8.053 0.358,-0.519 0.715,-1.044 0.996,-1.61 2.086,5.872 2.671,11.87 -1.875,16.802 -0.686,0.744 -2.336,2.179 -2.589,3.083 -0.136,0.484 -0.183,0.998 -0.221,1.498 l -0.5,-0.875 z"
       id="path387"
       inkscape:connector-curvature="0"
       style="fill:#899066" /><path
       transform="matrix(-2.9504505,-6.3272619,-6.3272619,2.9504505,1419.0143,42.08228)"
       clip-path="url(#SVGID_26_)"
       stroke-miterlimit="3.864"
       d="m 30.531,130.972 c 0.726,-1.109 0.09,-3.919 -0.142,-5.191 -0.358,-1.968 -0.384,-3.668 -0.063,-5.654 0.524,-3.247 2.579,-5.422 4.394,-8.053 0.358,-0.519 0.715,-1.044 0.996,-1.61 2.086,5.872 2.671,11.87 -1.875,16.802 -0.686,0.744 -2.336,2.179 -2.589,3.083 -0.136,0.484 -0.183,0.998 -0.221,1.498 l -0.5,-0.875 z"
       id="path389"
       inkscape:connector-curvature="0"
       style="fill:none;stroke:#000000;stroke-width:0.44800001;stroke-linecap:round;stroke-linejoin:round;stroke-miterlimit:3.86400008" /><path
       transform="matrix(-2.9504505,-6.3272619,-6.3272619,2.9504505,1419.0143,42.08228)"
       clip-path="url(#SVGID_26_)"
       d="m 47.845,151.879 c 0,0 -0.257,0.409 -1.464,0.409 -1.207,0 -4.982,-0.627 -8.002,0.162 -4.554,1.19 -6.434,5.45 -9.857,6.964 5.2,2.239 9.006,1.688 13.333,-1.773 1.836,-1.468 2.968,-4.34 5.496,-4.862 1.154,-0.238 1.509,-0.203 2.26,0.088"
       id="path391"
       inkscape:connector-curvature="0"
       style="fill:#395c35" /><g
       transform="matrix(-2.9504505,-6.3272619,-6.3272619,2.9504505,1419.0143,42.08228)"
       id="g393"><defs
         id="defs395"><path
           inkscape:connector-curvature="0"
           d="m 46.38,152.289 c -1.207,0 -4.982,-0.627 -8.002,0.162 -4.554,1.19 -6.434,5.451 -9.857,6.964 5.2,2.239 9.005,1.688 13.333,-1.774 1.836,-1.467 2.968,-4.338 5.496,-4.86 1.154,-0.239 1.509,-0.204 2.26,0.087 l -1.766,-0.988 c 10e-4,-0.001 -0.257,0.409 -1.464,0.409"
           id="SVGID_27_" /></defs><clipPath
         id="SVGID_28_"><use
           height="100%"
           width="100%"
           y="0"
           x="0"
           style="overflow:visible"
           id="use399"
           overflow="visible"
           xlink:href="#SVGID_27_" /></clipPath><polygon
         style="fill:#a17e4a"
         id="polygon401"
         points="49.227,152.612 47.812,151.691 47.285,152.217 46.462,152.349 46.791,152.876 47.614,152.711 "
         clip-path="url(#SVGID_28_)" /></g><path
       transform="matrix(-2.9504505,-6.3272619,-6.3272619,2.9504505,1419.0143,42.08228)"
       clip-path="url(#SVGID_30_)"
       stroke-miterlimit="3.864"
       d="m 83.528,173.811 c 0,0 0.048,-0.664 0.813,-0.93 0.661,-0.23 1.003,0.296 1.003,0.296 M 47.845,151.879 c 0,0 -0.257,0.409 -1.464,0.409 -1.207,0 -4.982,-0.627 -8.002,0.162 -4.554,1.19 -6.434,5.45 -9.857,6.964 5.2,2.239 9.006,1.688 13.333,-1.773 1.836,-1.468 2.968,-4.34 5.496,-4.862 1.154,-0.238 1.509,-0.203 2.26,0.088"
       id="path411"
       inkscape:connector-curvature="0"
       style="fill:none;stroke:#000000;stroke-width:0.44800001;stroke-linecap:round;stroke-linejoin:round;stroke-miterlimit:3.86400008" /><path
       inkscape:connector-curvature="0"
       id="path9530"
       d="m 294.18242,165.08134 -2.61528,9.3368 2.49307,1.27097 4.37509,-7.16147 z"
       style="fill:#a17e4a;fill-rule:evenodd;stroke:none;stroke-width:1px;stroke-linecap:butt;stroke-linejoin:miter;stroke-opacity:1;fill-opacity:1" /><path
       transform="matrix(-2.9504505,-6.3272619,-6.3272619,2.9504505,1419.0143,42.08228)"
       clip-path="url(#SVGID_34_)"
       stroke-miterlimit="3.864"
       d="m 52.256,153.523 c 0,0 -0.409,0.238 -0.53,0.346 -0.279,0.25 -0.646,0.434 -0.76,0.638 l -0.444,-0.041 c 0.276,-0.23 0.568,-0.623 0.725,-0.814 0.092,-0.111 0.002,-0.533 0.002,-0.533"
       id="path445"
       inkscape:connector-curvature="0"
       style="fill:none;stroke:#000000;stroke-width:0.373;stroke-linecap:round;stroke-linejoin:round;stroke-miterlimit:3.86400008" /><path
       transform="matrix(-2.9504505,-6.3272619,-6.3272619,2.9504505,1419.0143,42.08228)"
       clip-path="url(#SVGID_34_)"
       d="m 26.771,89.321 c 0.817,-2.314 0.798,-4.888 1.256,-7.291 0.964,-5.065 2.403,-6.712 6.062,-10.1 1.166,-1.079 2.36,-1.864 3.628,-2.822 0.205,1.457 0.301,2.68 0.153,4.143 -0.72,7.157 -3.768,8.846 -8.879,13.223 -0.991,0.848 -1.247,2.036 -2.22,2.847"
       id="path447"
       inkscape:connector-curvature="0"
       style="fill:#899066" /><g
       transform="matrix(-2.9504505,-6.3272619,-6.3272619,2.9504505,1419.0143,42.08228)"
       id="g449"><defs
         id="defs451"><path
           inkscape:connector-curvature="0"
           d="m 34.088,71.931 c -3.659,3.388 -5.097,5.035 -6.062,10.1 -0.458,2.404 -0.438,4.977 -1.256,7.291 0.973,-0.811 1.229,-1.999 2.22,-2.847 5.111,-4.377 8.159,-6.066 8.879,-13.223 0.148,-1.462 0.051,-2.686 -0.153,-4.143 -1.267,0.957 -2.462,1.743 -3.628,2.822"
           id="SVGID_35_" /></defs><clipPath
         id="SVGID_36_"><use
           height="100%"
           width="100%"
           y="0"
           x="0"
           style="overflow:visible"
           id="use455"
           overflow="visible"
           xlink:href="#SVGID_35_" /></clipPath><path
         style="fill:#a17e4a"
         inkscape:connector-curvature="0"
         id="path457"
         d="m 26.765,89.066 c 0.189,-0.395 0.426,-0.674 0.53,-0.625 0.105,0.05 0.037,0.411 -0.151,0.806 -0.189,0.394 -0.426,0.674 -0.531,0.624 -0.104,-0.05 -0.036,-0.41 0.152,-0.805"
         clip-path="url(#SVGID_36_)" /></g><g
       transform="matrix(-2.9504505,-6.3272619,-6.3272619,2.9504505,1419.0143,42.08228)"
       id="g459"><defs
         id="defs461"><rect
           height="174.58701"
           width="145.356"
           y="8.0450001"
           x="8.2799997"
           id="SVGID_37_" /></defs><clipPath
         id="SVGID_38_"><use
           height="100%"
           width="100%"
           y="0"
           x="0"
           style="overflow:visible"
           id="use465"
           overflow="visible"
           xlink:href="#SVGID_37_" /></clipPath><path
         style="fill:none;stroke:#000000;stroke-width:0.44800001;stroke-linecap:round;stroke-linejoin:round;stroke-miterlimit:3.86400008"
         inkscape:connector-curvature="0"
         id="path467"
         d="m 26.771,89.321 c 0.817,-2.314 0.798,-4.888 1.256,-7.291 0.964,-5.065 2.403,-6.712 6.062,-10.1 1.166,-1.079 2.36,-1.864 3.628,-2.822 0.205,1.457 0.301,2.68 0.153,4.143 -0.72,7.157 -3.768,8.846 -8.879,13.223 -0.991,0.848 -1.247,2.036 -2.22,2.847 z"
         stroke-miterlimit="3.864"
         clip-path="url(#SVGID_38_)" /><path
         inkscape:connector-curvature="0"
         id="path469"
         d="m 27.091,89.583 c 0,0 0.184,-0.561 0.461,-1.277 0.277,-0.716 0.206,0.192 0.206,0.192 l -0.163,0.78 -0.504,0.305 z"
         clip-path="url(#SVGID_38_)" /><path
         style="fill:#899066"
         inkscape:connector-curvature="0"
         id="path471"
         d="m 24.121,100.584 -0.374,1.201 c -0.21,-1.563 -0.868,-2.259 -1.994,-3.278 -4.903,-4.436 -6.998,-9.657 -4.941,-15.761 0.72,-2.134 1.413,-3.311 2.93,-4.975 0.958,1.641 1.422,2.623 2.086,4.404 1.682,4.52 2.353,7.075 1.686,12.252 -0.236,1.829 -1.113,4.056 0.101,5.682 0.133,0.178 0.293,0.385 0.506,0.475"
         clip-path="url(#SVGID_38_)" /><path
         style="fill:none;stroke:#000000;stroke-width:0.44800001;stroke-linecap:round;stroke-linejoin:round;stroke-miterlimit:3.86400008"
         inkscape:connector-curvature="0"
         id="path473"
         d="m 24.121,100.584 -0.374,1.201 c -0.21,-1.563 -0.868,-2.259 -1.994,-3.278 -4.903,-4.436 -6.998,-9.657 -4.941,-15.761 0.72,-2.134 1.413,-3.311 2.93,-4.975 0.958,1.641 1.422,2.623 2.086,4.404 1.682,4.52 2.353,7.075 1.686,12.252 -0.236,1.829 -1.113,4.056 0.101,5.682 0.133,0.178 0.293,0.385 0.506,0.475 z"
         stroke-miterlimit="3.864"
         clip-path="url(#SVGID_38_)" /><path
         style="fill:#a17e4a"
         inkscape:connector-curvature="0"
         id="path475"
         d="m 23.98,103.239 c 0,0 0.118,-1.187 -0.066,-1.909 -0.091,-0.359 -0.329,-0.889 -0.329,-0.889 0,0 0.59,0.3 0.725,0.274 0.136,-0.025 -0.33,2.524 -0.33,2.524"
         clip-path="url(#SVGID_38_)" /><path
         style="fill:#a17e4a"
         inkscape:connector-curvature="0"
         id="path477"
         d="m 25.983,91.612 c -0.283,0.115 -1.152,-1.11 -1.258,-1.939 -0.1,-0.788 -0.423,-0.459 -0.385,0.167 0.071,1.164 1.463,2.411 1.27,3.151 0.262,-0.636 0.386,-1.095 0.373,-1.379"
         clip-path="url(#SVGID_38_)" /><path
         style="fill:none;stroke:#000000;stroke-width:0.373;stroke-linecap:round;stroke-linejoin:round;stroke-miterlimit:3.86400008"
         inkscape:connector-curvature="0"
         id="path479"
         d="m 25.983,91.612 c -0.283,0.115 -1.152,-1.11 -1.258,-1.939 -0.1,-0.788 -0.423,-0.459 -0.385,0.167 0.071,1.164 1.314,2.199 1.121,2.938"
         stroke-miterlimit="3.864"
         clip-path="url(#SVGID_38_)" /><path
         style="fill:#d99c1b"
         inkscape:connector-curvature="0"
         id="path481"
         d="m 21.699,88.328 c 0.02,-1.175 0.989,-2.11 2.164,-2.09 1.175,0.02 2.111,0.989 2.09,2.164 -0.02,1.175 -0.989,2.111 -2.164,2.09 -1.175,-0.021 -2.111,-0.989 -2.09,-2.164"
         clip-path="url(#SVGID_38_)" /></g><g
       transform="matrix(-2.9504505,-6.3272619,-6.3272619,2.9504505,1419.0143,42.08228)"
       id="g483"><defs
         id="defs485"><path
           inkscape:connector-curvature="0"
           d="m 21.699,88.328 c -0.021,1.174 0.915,2.144 2.09,2.165 1.174,0.02 2.144,-0.916 2.164,-2.09 0.021,-1.176 -0.915,-2.144 -2.09,-2.165 -0.012,0 -0.025,0 -0.038,0 -1.158,-0.001 -2.106,0.928 -2.126,2.09"
           id="SVGID_39_" /></defs><clipPath
         id="SVGID_40_"><use
           height="100%"
           width="100%"
           y="0"
           x="0"
           style="overflow:visible"
           id="use489"
           overflow="visible"
           xlink:href="#SVGID_39_" /></clipPath><path
         style="fill:#f2be1a"
         inkscape:connector-curvature="0"
         id="path491"
         d="m 23.952,88.124 c -0.576,-0.404 -0.829,-1.038 -0.564,-1.417 0.265,-0.378 0.947,-0.358 1.524,0.046 0.577,0.404 0.829,1.038 0.564,1.416 -0.265,0.379 -0.947,0.357 -1.524,-0.045"
         clip-path="url(#SVGID_40_)" /></g><circle
       transform="matrix(-2.9504505,-6.3272619,-6.3272619,2.9504505,1419.0143,42.08228)"
       clip-path="url(#SVGID_42_)"
       stroke-miterlimit="3.864"
       cx="23.826"
       cy="88.364998"
       r="2.1270001"
       id="circle501"
       style="fill:none;stroke:#000000;stroke-width:0.44800001;stroke-linecap:round;stroke-linejoin:round;stroke-miterlimit:3.86400008" /><path
       transform="matrix(-2.9504505,-6.3272619,-6.3272619,2.9504505,1419.0143,42.08228)"
       clip-path="url(#SVGID_42_)"
       d="m 34.671,129.909 c 1.216,0 2.202,0.986 2.202,2.202 0,1.216 -0.986,2.202 -2.202,2.202 -1.216,0 -2.202,-0.986 -2.202,-2.202 10e-4,-1.216 0.987,-2.202 2.202,-2.202"
       id="path511"
       inkscape:connector-curvature="0"
       style="fill:#d99c1b" /><g
       transform="matrix(-2.9504505,-6.3272619,-6.3272619,2.9504505,1419.0143,42.08228)"
       id="g513"><defs
         id="defs515"><path
           inkscape:connector-curvature="0"
           d="m 32.47,132.111 c 0,1.216 0.986,2.201 2.202,2.201 1.216,0 2.202,-0.985 2.202,-2.201 0,-1.217 -0.986,-2.202 -2.202,-2.202 -1.216,0.001 -2.202,0.986 -2.202,2.202"
           id="SVGID_43_" /></defs><clipPath
         id="SVGID_44_"><use
           height="100%"
           width="100%"
           y="0"
           x="0"
           style="overflow:visible"
           id="use519"
           overflow="visible"
           xlink:href="#SVGID_43_" /></clipPath><path
         style="fill:#f2be1a"
         inkscape:connector-curvature="0"
         id="path521"
         d="m 34.415,131.895 c -0.47,-0.647 -0.486,-1.436 -0.036,-1.762 0.45,-0.327 1.195,-0.068 1.665,0.579 0.469,0.646 0.486,1.435 0.036,1.762 -0.45,0.327 -1.195,0.068 -1.665,-0.579"
         clip-path="url(#SVGID_44_)" /></g><g
       transform="matrix(-2.9504505,-6.3272619,-6.3272619,2.9504505,1419.0143,42.08228)"
       id="g523"><defs
         id="defs525"><rect
           height="174.58701"
           width="145.356"
           y="8.0450001"
           x="8.2799997"
           id="SVGID_45_" /></defs><clipPath
         id="SVGID_46_"><use
           height="100%"
           width="100%"
           y="0"
           x="0"
           style="overflow:visible"
           id="use529"
           overflow="visible"
           xlink:href="#SVGID_45_" /></clipPath><circle
         style="fill:none;stroke:#000000;stroke-width:0.44800001;stroke-linecap:round;stroke-linejoin:round;stroke-miterlimit:3.86400008"
         id="circle531"
         r="2.2019999"
         cy="132.11099"
         cx="34.671001"
         stroke-miterlimit="3.864"
         clip-path="url(#SVGID_46_)" /><circle
         style="fill:none;stroke:#000000;stroke-width:0.597;stroke-linecap:round;stroke-linejoin:round;stroke-miterlimit:3.86400008"
         id="circle533"
         r="2.3510001"
         cy="132.11099"
         cx="34.672001"
         stroke-miterlimit="3.864"
         clip-path="url(#SVGID_46_)" /><circle
         style="fill:none;stroke:#000000;stroke-width:0.523;stroke-linecap:round;stroke-linejoin:round;stroke-miterlimit:3.86400008"
         id="circle535"
         r="2.273"
         cy="88.389"
         cx="23.806"
         stroke-miterlimit="3.864"
         clip-path="url(#SVGID_46_)" /><path
         style="fill:none;stroke:#000000;stroke-width:0.44800001;stroke-linecap:round;stroke-linejoin:round;stroke-miterlimit:3.86400008"
         inkscape:connector-curvature="0"
         id="path537"
         d="m 89.498,181.667 c -1.438,0.297 -2.318,-1.509 -1.824,-1.953 0.322,-0.29 1.118,-0.228 1.702,0.057 1.043,0.509 0.764,1.764 0.122,1.896 z m -5.298,-7.11 c 0,0 0.024,-0.67 0.814,-0.856 0.72,-0.169 1.003,0.446 1.003,0.446"
         stroke-miterlimit="3.864"
         clip-path="url(#SVGID_46_)" /><path
         style="fill:#a17e4a"
         inkscape:connector-curvature="0"
         id="path539"
         d="m 89.498,181.667 c -1.195,0.304 -2.134,-1.301 -1.824,-1.655 0.286,-0.326 0.891,-0.343 1.475,-0.059 1.043,0.51 0.983,1.553 0.349,1.714"
         clip-path="url(#SVGID_46_)" /><path
         style="fill:none;stroke:#000000;stroke-width:0.44800001;stroke-linecap:round;stroke-linejoin:round;stroke-miterlimit:3.86400008"
         inkscape:connector-curvature="0"
         id="path541"
         d="m 89.498,181.667 c -1.195,0.304 -2.134,-1.301 -1.824,-1.655 0.286,-0.326 0.891,-0.343 1.475,-0.059 1.043,0.51 0.983,1.553 0.349,1.714 z"
         stroke-miterlimit="3.864"
         clip-path="url(#SVGID_46_)" /><path
         style="clip-rule:evenodd;fill-rule:evenodd"
         inkscape:connector-curvature="0"
         id="path543"
         d="m 26.712,89.611 c 1.514,-4.411 2.358,-7.512 4.865,-11.821 1.705,-2.93 5.049,-7.077 5.049,-7.077 0,0 -3.149,4.255 -4.783,7.205 -2.309,4.171 -2.827,5.966 -4.67,11.298 l -0.461,0.395 z"
         clip-path="url(#SVGID_46_)" /><path
         style="fill:none;stroke:#000000;stroke-width:0.149;stroke-linecap:round;stroke-linejoin:round;stroke-miterlimit:3.86400008"
         inkscape:connector-curvature="0"
         id="path545"
         d="m 26.712,89.611 c 1.514,-4.411 2.358,-7.512 4.865,-11.821 1.705,-2.93 5.049,-7.077 5.049,-7.077 0,0 -3.149,4.255 -4.783,7.205 -2.309,4.171 -2.827,5.966 -4.67,11.298 l -0.461,0.395 z"
         stroke-miterlimit="3.864"
         clip-path="url(#SVGID_46_)" /><path
         inkscape:connector-curvature="0"
         id="path547"
         d="m 19.542,79.808 c 0,0 -0.553,6.929 0.318,11.219 0.783,3.854 3.503,9.455 3.503,9.455 0,0 0.152,0.113 -0.635,-1.963 -0.809,-2.132 -1.84,-4.49 -2.495,-7.504 -0.93,-4.279 -0.691,-11.207 -0.691,-11.207"
         clip-path="url(#SVGID_46_)" /><path
         style="fill:none;stroke:#000000;stroke-width:0.149;stroke-linecap:round;stroke-linejoin:round;stroke-miterlimit:3.86400008"
         inkscape:connector-curvature="0"
         id="path549"
         d="m 19.542,79.808 c 0,0 -0.553,6.929 0.318,11.219 0.783,3.854 3.503,9.455 3.503,9.455 0,0 0.152,0.113 -0.635,-1.963 -0.809,-2.132 -1.84,-4.49 -2.495,-7.504 -0.93,-4.279 -0.691,-11.207 -0.691,-11.207 z"
         stroke-miterlimit="3.864"
         clip-path="url(#SVGID_46_)" /><path
         style="clip-rule:evenodd;fill-rule:evenodd"
         inkscape:connector-curvature="0"
         id="path551"
         d="m 13.064,97.811 c 0,0 0.917,2.398 1.703,3.831 2.158,3.936 4.01,5.995 7.693,8.56 l 0.108,-0.331 c -3.551,-2.521 -5.221,-4.534 -7.503,-8.229 -0.885,-1.434 -2.001,-3.831 -2.001,-3.831"
         clip-path="url(#SVGID_46_)" /><path
         style="fill:none;stroke:#000000;stroke-width:0.149;stroke-linecap:round;stroke-linejoin:round;stroke-miterlimit:3.86400008"
         inkscape:connector-curvature="0"
         id="path553"
         d="m 13.064,97.811 c 0,0 0.917,2.398 1.703,3.831 2.158,3.936 4.01,5.995 7.693,8.56 l 0.108,-0.331 c -3.551,-2.521 -5.221,-4.534 -7.503,-8.229 -0.885,-1.434 -2.001,-3.831 -2.001,-3.831 z"
         stroke-miterlimit="3.864"
         clip-path="url(#SVGID_46_)" /><path
         style="clip-rule:evenodd;fill-rule:evenodd"
         inkscape:connector-curvature="0"
         id="path555"
         d="m 26.252,99.42 c 0,0 4.41,-4.072 6.665,-7.256 1.993,-2.816 4.384,-7.807 4.384,-7.807 0,0 -2.184,5.053 -4.118,7.886 -2.172,3.18 -6.334,7.177 -6.334,7.177 l -0.597,0 z"
         clip-path="url(#SVGID_46_)" /><path
         style="fill:none;stroke:#000000;stroke-width:0.149;stroke-linecap:round;stroke-linejoin:round;stroke-miterlimit:3.86400008"
         inkscape:connector-curvature="0"
         id="path557"
         d="m 26.252,99.42 c 0,0 4.41,-4.072 6.665,-7.256 1.993,-2.816 4.384,-7.807 4.384,-7.807 0,0 -2.184,5.053 -4.118,7.886 -2.172,3.18 -6.334,7.177 -6.334,7.177 l -0.597,0 z"
         stroke-miterlimit="3.864"
         clip-path="url(#SVGID_46_)" /><path
         inkscape:connector-curvature="0"
         id="path559"
         d="m 30.573,131.328 c 0.839,-2.021 2.101,-4.804 3.043,-8.01 1.182,-4.023 1.884,-5.983 2.019,-10.561 -0.068,4.571 -0.555,6.151 -1.523,9.959 -0.824,3.241 -1.952,6.086 -2.791,8.106 l -0.748,0.506 z"
         clip-path="url(#SVGID_46_)" /><path
         style="fill:none;stroke:#000000;stroke-width:0.149;stroke-linecap:round;stroke-linejoin:round;stroke-miterlimit:3.86400008"
         inkscape:connector-curvature="0"
         id="path561"
         d="m 30.573,131.328 c 0.839,-2.021 2.101,-4.804 3.043,-8.01 1.182,-4.023 1.884,-5.983 2.019,-10.561 -0.068,4.571 -0.555,6.151 -1.523,9.959 -0.824,3.241 -1.952,6.086 -2.791,8.106 l -0.748,0.506 z"
         stroke-miterlimit="3.864"
         clip-path="url(#SVGID_46_)" /><path
         inkscape:connector-curvature="0"
         id="path563"
         d="m 28.062,111.04 c 0,0 3.322,-2.905 4.806,-5.505 1.956,-3.427 2.285,-6.178 2.285,-6.178 0,0 -0.032,2.766 -1.987,6.193 -1.484,2.601 -4.972,5.918 -4.972,5.918 l -0.132,-0.428 z"
         clip-path="url(#SVGID_46_)" /><path
         style="fill:none;stroke:#000000;stroke-width:0.149;stroke-linecap:round;stroke-linejoin:round;stroke-miterlimit:3.86400008"
         inkscape:connector-curvature="0"
         id="path565"
         d="m 28.062,111.04 c 0,0 3.322,-2.905 4.806,-5.505 1.956,-3.427 2.285,-6.178 2.285,-6.178 0,0 -0.032,2.766 -1.987,6.193 -1.484,2.601 -4.972,5.918 -4.972,5.918 l -0.132,-0.428 z"
         stroke-miterlimit="3.864"
         clip-path="url(#SVGID_46_)" /><path
         inkscape:connector-curvature="0"
         id="path567"
         d="m 24.277,127.52 c 0,0 -2.866,-1.816 -4.437,-3.14 -6.096,-5.135 -9.915,-12.056 -9.915,-12.056 0,0 3.49,7.308 9.691,12.355 1.648,1.341 4.661,3.214 4.661,3.214 l 0,-0.373 z"
         clip-path="url(#SVGID_46_)" /><path
         style="fill:none;stroke:#000000;stroke-width:0.149;stroke-linecap:round;stroke-linejoin:round;stroke-miterlimit:3.86400008"
         inkscape:connector-curvature="0"
         id="path569"
         d="m 24.277,127.52 c 0,0 -2.866,-1.816 -4.437,-3.14 -6.096,-5.135 -9.915,-12.056 -9.915,-12.056 0,0 3.49,7.308 9.691,12.355 1.648,1.341 4.661,3.214 4.661,3.214 l 0,-0.373 z"
         stroke-miterlimit="3.864"
         clip-path="url(#SVGID_46_)" /><path
         style="fill:none;stroke:#000000;stroke-width:0.44800001;stroke-linejoin:round;stroke-miterlimit:3.86400008"
         inkscape:connector-curvature="0"
         id="path571"
         d="m 24.672,128.255 c 0,0 -0.549,-0.234 -0.263,-0.757"
         stroke-miterlimit="3.864"
         clip-path="url(#SVGID_46_)" /><path
         style="clip-rule:evenodd;fill-rule:evenodd"
         inkscape:connector-curvature="0"
         id="path573"
         d="m 46.556,149.245 c -2.69,-1.691 -6.475,-4.21 -9.886,-7.714 -1.168,-1.2 -2.849,-3.212 -2.849,-3.212 0,0 1.364,2.129 2.476,3.287 3.041,3.165 7.218,6.135 9.908,7.826 l 0.351,-0.187 z"
         clip-path="url(#SVGID_46_)" /><path
         style="fill:none;stroke:#000000;stroke-width:0.149;stroke-linecap:round;stroke-linejoin:round;stroke-miterlimit:3.86400008"
         inkscape:connector-curvature="0"
         id="path575"
         d="m 46.556,149.245 c -2.69,-1.691 -6.475,-4.21 -9.886,-7.714 -1.168,-1.2 -2.849,-3.212 -2.849,-3.212 0,0 1.364,2.129 2.476,3.287 3.041,3.165 7.218,6.135 9.908,7.826 l 0.351,-0.187 z"
         stroke-miterlimit="3.864"
         clip-path="url(#SVGID_46_)" /><path
         inkscape:connector-curvature="0"
         id="path577"
         d="m 55.865,152.476 c 0,0 -5.06,-3.63 -7.336,-6.798 -1.238,-1.722 -1.839,-2.786 -2.677,-4.735 1.006,1.953 1.688,3.012 3.051,4.735 2.279,2.883 6.962,6.35 6.962,6.35 l 0,0.448 z"
         clip-path="url(#SVGID_46_)" /><path
         style="fill:none;stroke:#000000;stroke-width:0.149;stroke-linecap:round;stroke-linejoin:round;stroke-miterlimit:3.86400008"
         inkscape:connector-curvature="0"
         id="path579"
         d="m 55.865,152.476 c 0,0 -5.06,-3.63 -7.336,-6.798 -1.238,-1.722 -1.839,-2.786 -2.677,-4.735 1.006,1.953 1.688,3.012 3.051,4.735 2.279,2.883 6.962,6.35 6.962,6.35 l 0,0.448 z"
         stroke-miterlimit="3.864"
         clip-path="url(#SVGID_46_)" /><path
         inkscape:connector-curvature="0"
         id="path581"
         d="m 30.812,158.98 c 7.44,-1.034 10.334,-5.381 16.671,-6.368 -0.668,0.035 -0.546,-0.227 -1.153,-0.099 -5.588,1.18 -9.005,5.407 -15.518,6.467"
         clip-path="url(#SVGID_46_)" /><path
         style="fill:none;stroke:#000000;stroke-width:0.149;stroke-linecap:round;stroke-linejoin:round;stroke-miterlimit:3.86400008"
         inkscape:connector-curvature="0"
         id="path583"
         d="m 30.812,158.98 c 7.44,-1.034 10.334,-5.381 16.671,-6.368 -0.668,0.035 -0.546,-0.227 -1.153,-0.099 -5.588,1.18 -9.005,5.407 -15.518,6.467 z"
         stroke-miterlimit="3.864"
         clip-path="url(#SVGID_46_)" /><path
         style="fill:#d99c1b"
         inkscape:connector-curvature="0"
         id="path585"
         d="m 39.89,148.109 c 1.216,0 2.202,0.986 2.202,2.202 0,1.216 -0.986,2.202 -2.202,2.202 -1.216,0 -2.202,-0.986 -2.202,-2.202 0,-1.216 0.986,-2.202 2.202,-2.202"
         clip-path="url(#SVGID_46_)" /></g><g
       transform="matrix(-2.9504505,-6.3272619,-6.3272619,2.9504505,1419.0143,42.08228)"
       id="g587"><defs
         id="defs589"><path
           inkscape:connector-curvature="0"
           d="m 37.688,150.312 c 0,1.216 0.986,2.202 2.203,2.202 1.216,0 2.201,-0.986 2.201,-2.202 0,-1.216 -0.985,-2.202 -2.201,-2.202 -1.218,-0.001 -2.203,0.986 -2.203,2.202"
           id="SVGID_47_" /></defs><clipPath
         id="SVGID_48_"><use
           height="100%"
           width="100%"
           y="0"
           x="0"
           style="overflow:visible"
           id="use593"
           overflow="visible"
           xlink:href="#SVGID_47_" /></clipPath><path
         style="fill:#f2be1a"
         inkscape:connector-curvature="0"
         id="path595"
         d="m 41.16,148.285 c 0.768,0.443 1.128,1.256 0.806,1.814 -0.323,0.559 -1.207,0.652 -1.974,0.209 -0.768,-0.443 -1.129,-1.255 -0.806,-1.814 0.323,-0.559 1.207,-0.652 1.974,-0.209"
         clip-path="url(#SVGID_48_)" /></g><circle
       transform="matrix(-2.9504505,-6.3272619,-6.3272619,2.9504505,1419.0143,42.08228)"
       clip-path="url(#SVGID_50_)"
       stroke-miterlimit="3.864"
       cx="39.889999"
       cy="150.311"
       r="2.2019999"
       id="circle605"
       style="fill:none;stroke:#000000;stroke-width:0.44800001;stroke-linecap:round;stroke-linejoin:round;stroke-miterlimit:3.86400008" /><circle
       transform="matrix(-2.9504505,-6.3272619,-6.3272619,2.9504505,1419.0143,42.08228)"
       clip-path="url(#SVGID_50_)"
       stroke-miterlimit="3.864"
       cx="39.889999"
       cy="150.312"
       r="2.3510001"
       id="circle607"
       style="fill:none;stroke:#000000;stroke-width:0.597;stroke-linecap:round;stroke-linejoin:round;stroke-miterlimit:3.86400008" /><path
       transform="matrix(-2.9504505,-6.3272619,-6.3272619,2.9504505,1419.0143,42.08228)"
       clip-path="url(#SVGID_50_)"
       d="m 47.596,151.333 c 0,0 0.207,0.117 0.334,0.261 0.128,0.144 0.175,0.316 0.087,0.426 0,0 0.051,0.126 0.216,0.246 0.221,0.161 0.512,0.148 0.833,0.198 0.409,0.066 0.696,0.122 0.986,0.207 0.291,0.085 0.656,0.236 0.656,0.236 l -1.65,-0.822 -1.462,-0.752 z"
       id="path609"
       inkscape:connector-curvature="0"
       style="clip-rule:evenodd;fill:#a17e4a;fill-rule:evenodd" /><path
       transform="matrix(-2.9504505,-6.3272619,-6.3272619,2.9504505,1419.0143,42.08228)"
       clip-path="url(#SVGID_50_)"
       d="m 31.683,138.435 c 0,0 -4.107,-1.077 -9.354,-3.035 -5.247,-1.959 -8.783,-5.236 -8.783,-5.236 0,0 3.536,2.978 8.783,4.937 5.247,1.959 9.354,2.886 9.354,2.886 l 0,0.448 z"
       id="path611"
       inkscape:connector-curvature="0"
       style="clip-rule:evenodd;fill-rule:evenodd" /><path
       transform="matrix(-2.9504505,-6.3272619,-6.3272619,2.9504505,1419.0143,42.08228)"
       clip-path="url(#SVGID_50_)"
       stroke-miterlimit="3.864"
       d="m 31.683,138.435 c 0,0 -4.107,-1.077 -9.354,-3.035 -5.247,-1.959 -8.783,-5.236 -8.783,-5.236 0,0 3.536,2.978 8.783,4.937 5.247,1.959 9.354,2.886 9.354,2.886 l 0,0.448 z"
       id="path613"
       inkscape:connector-curvature="0"
       style="fill:none;stroke:#000000;stroke-width:0.149;stroke-linecap:round;stroke-linejoin:round;stroke-miterlimit:3.86400008" /><circle
       transform="matrix(-2.9504505,-6.3272619,-6.3272619,2.9504505,1419.0143,42.08228)"
       clip-path="url(#SVGID_50_)"
       stroke-miterlimit="3.864"
       cx="49.469002"
       cy="156.459"
       r="2.3510001"
       id="circle691"
       style="fill:none;stroke:#000000;stroke-width:0.597;stroke-linecap:round;stroke-linejoin:round;stroke-miterlimit:3.86400008" /><path
       transform="matrix(-2.9504505,-6.3272619,-6.3272619,2.9504505,1419.0143,42.08228)"
       clip-path="url(#SVGID_50_)"
       d="m 49.467,154.257 c 1.216,0 2.202,0.986 2.202,2.202 0,1.216 -0.986,2.202 -2.202,2.202 -1.216,0 -2.202,-0.986 -2.202,-2.202 0,-1.216 0.986,-2.202 2.202,-2.202"
       id="path693"
       inkscape:connector-curvature="0"
       style="fill:#d99c1b" /><g
       transform="matrix(-2.9504505,-6.3272619,-6.3272619,2.9504505,1419.0143,42.08228)"
       id="g695"><defs
         id="defs697"><path
           inkscape:connector-curvature="0"
           d="m 47.266,156.459 c 0,1.216 0.986,2.202 2.202,2.202 1.216,0 2.202,-0.986 2.202,-2.202 0,-1.217 -0.986,-2.203 -2.202,-2.203 -1.217,0 -2.202,0.987 -2.202,2.203"
           id="SVGID_51_" /></defs><clipPath
         id="SVGID_52_"><use
           height="100%"
           width="100%"
           y="0"
           x="0"
           style="overflow:visible"
           id="use701"
           overflow="visible"
           xlink:href="#SVGID_51_" /></clipPath><path
         style="fill:#f2be1a"
         inkscape:connector-curvature="0"
         id="path703"
         d="m 51.3,157.817 c -0.716,0.414 -1.754,-0.042 -2.318,-1.019 -0.564,-0.976 -0.44,-2.103 0.276,-2.517 0.717,-0.413 1.755,0.043 2.318,1.019 0.564,0.976 0.44,2.103 -0.276,2.517"
         clip-path="url(#SVGID_52_)" /></g><circle
       transform="matrix(-2.9504505,-6.3272619,-6.3272619,2.9504505,1419.0143,42.08228)"
       clip-path="url(#SVGID_54_)"
       stroke-miterlimit="3.864"
       cx="49.466999"
       cy="156.459"
       r="2.2019999"
       id="circle713"
       style="fill:none;stroke:#000000;stroke-width:0.44800001;stroke-linecap:round;stroke-linejoin:round;stroke-miterlimit:3.86400008" /><path
       transform="matrix(-2.9504505,-6.3272619,-6.3272619,2.9504505,1419.0143,42.08228)"
       clip-path="url(#SVGID_66_)"
       d="m 27.751,126.395 c 0,0 0.25,0.765 0.445,1.241 0.145,0.353 0.403,0.892 0.403,0.892 0,0 -0.539,0.115 -0.539,0.055 0,-0.06 -0.42,-2.179 -0.42,-2.179 l 0.111,-0.009 z"
       id="path823"
       inkscape:connector-curvature="0"
       style="fill:#a17e4a" /><path
       transform="matrix(-2.9504505,-6.3272619,-6.3272619,2.9504505,1419.0143,42.08228)"
       clip-path="url(#SVGID_66_)"
       d="m 27.468,126.839 c -0.795,-1.218 -2.486,-2.573 -3.442,-3.566 -1.644,-1.707 -2.664,-3.663 -3.039,-6.016 -0.885,-5.561 0.732,-9.301 4.79,-13.06 0.256,3.901 2.487,7.135 2.959,11.031 0.677,5.588 -2.879,6.641 -0.409,12.11"
       id="path825"
       inkscape:connector-curvature="0"
       style="fill:#899066" /><g
       transform="matrix(-2.9504505,-6.3272619,-6.3272619,2.9504505,1419.0143,42.08228)"
       id="g827"><defs
         id="defs829"><path
           inkscape:connector-curvature="0"
           d="m 20.988,117.257 c 0.374,2.353 1.394,4.31 3.038,6.016 0.956,0.993 2.647,2.348 3.442,3.566 l 0.859,0.499 c -2.47,-5.47 1.086,-6.522 0.409,-12.11 -0.472,-3.896 -2.703,-7.131 -2.959,-11.031 -4.057,3.76 -5.675,7.499 -4.789,13.06"
           id="SVGID_67_" /></defs><clipPath
         id="SVGID_68_"><use
           height="100%"
           width="100%"
           y="0"
           x="0"
           style="overflow:visible"
           id="use833"
           overflow="visible"
           xlink:href="#SVGID_67_" /></clipPath><path
         style="fill:#a17e4a"
         inkscape:connector-curvature="0"
         id="path835"
         d="m 26.929,125.73 c 0,0 0.328,1.662 0.468,1.662 0.141,0 1.077,0.889 1.077,0.889 l -0.679,-2.317 -0.866,-0.234 z"
         clip-path="url(#SVGID_68_)" /></g><path
       transform="matrix(-2.9504505,-6.3272619,-6.3272619,2.9504505,1419.0143,42.08228)"
       clip-path="url(#SVGID_70_)"
       stroke-miterlimit="3.864"
       d="m 27.468,126.839 c -0.795,-1.218 -2.486,-2.573 -3.442,-3.566 -1.644,-1.707 -2.664,-3.663 -3.039,-6.016 -0.885,-5.561 0.732,-9.301 4.79,-13.06 0.256,3.901 2.487,7.135 2.959,11.031 0.677,5.588 -2.879,6.641 -0.409,12.11"
       id="path845"
       inkscape:connector-curvature="0"
       style="fill:none;stroke:#000000;stroke-width:0.44800001;stroke-linecap:round;stroke-linejoin:round;stroke-miterlimit:3.86400008" /><path
       transform="matrix(-2.9504505,-6.3272619,-6.3272619,2.9504505,1419.0143,42.08228)"
       clip-path="url(#SVGID_70_)"
       d="m 27.463,125.685 c -1.616,-2.431 -1.932,-3.619 -2.615,-6.124 -1.285,-4.705 -1.293,-10.419 -0.084,-12.506 -1.209,2.087 -1.458,7.772 -0.289,12.51 0.658,2.67 1.182,4.063 2.68,6.522 l 0.308,-0.402 z"
       id="path847"
       inkscape:connector-curvature="0"
       style="clip-rule:evenodd;fill-rule:evenodd" /><path
       transform="matrix(-2.9504505,-6.3272619,-6.3272619,2.9504505,1419.0143,42.08228)"
       clip-path="url(#SVGID_70_)"
       stroke-miterlimit="3.864"
       d="m 27.463,125.685 c -1.616,-2.431 -1.932,-3.619 -2.615,-6.124 -1.285,-4.705 -1.293,-10.419 -0.084,-12.506 -1.209,2.087 -1.458,7.772 -0.289,12.51 0.658,2.67 1.182,4.063 2.68,6.522 l 0.308,-0.402 z"
       id="path849"
       inkscape:connector-curvature="0"
       style="fill:none;stroke:#000000;stroke-width:0.149;stroke-linecap:round;stroke-linejoin:round;stroke-miterlimit:3.86400008" /><path
       transform="matrix(-2.9504505,-6.3272619,-6.3272619,2.9504505,1419.0143,42.08228)"
       clip-path="url(#SVGID_70_)"
       stroke-miterlimit="3.864"
       d="m 27.267,126.556 c -0.395,-0.461 0.11,-1.218 0.564,-0.55"
       id="path851"
       inkscape:connector-curvature="0"
       style="fill:none;stroke:#000000;stroke-width:0.44800001;stroke-linejoin:round;stroke-miterlimit:3.86400008" /></g></svg>